<?xml version="1.0" encoding="UTF-8"?> <svg xmlns="http://www.w3.org/2000/svg" id="Ebene_1" data-name="Ebene 1" viewBox="0 0 675.5 341.41"><defs><style> .cls-1 { fill: #fff; } .cls-2 { fill: #8e8e8d; } .cls-3 { fill: #bc8e3b; opacity: .8; } .cls-4, .cls-5 { fill: #734c14; } .cls-5 { fill-rule: evenodd; } </style></defs><path class="cls-2" d="m456.08,68.29c0,7.66-1.3,14.63-3.9,20.92-2.6,6.29-6.19,12.03-10.77,17.23-4.58,5.2-10.05,9.91-16.41,14.15-6.36,4.24-13.23,8.2-20.61,11.89,6.29,2.87,12.2,6.43,17.74,10.66,5.54,4.24,10.36,8.99,14.46,14.25,4.1,5.26,7.31,11.01,9.64,17.23,2.32,6.22,3.49,12.75,3.49,19.59,0,9.3-1.13,18.76-3.38,28.4s-5.67,19-10.25,28.1c-4.58,9.09-10.46,17.64-17.64,25.63s-15.66,15.01-25.43,21.02c-9.78,6.02-20.92,10.77-33.43,14.25s-26.49,5.23-41.94,5.23c-11.48,0-22.63-1.88-33.43-5.64-10.8-3.76-21.12-9.6-30.97-17.53-2.33-2.19-3.49-4.78-3.49-7.79,0-1.5.31-3.01.92-4.51.62-1.5,1.44-2.87,2.46-4.1s2.22-2.22,3.59-2.97c1.37-.75,2.87-1.13,4.51-1.13s4.27,1.1,7.9,3.28c3.62,2.19,8.1,4.55,13.43,7.08,5.33,2.53,11.48,4.85,18.46,6.97,6.97,2.12,14.77,3.18,23.38,3.18,12.99,0,24.61-2.26,34.86-6.77s18.97-10.49,26.15-17.94c7.18-7.45,12.68-15.93,16.51-25.43,3.83-9.5,5.74-19.24,5.74-29.22,0-7.25-1.16-14.22-3.49-20.92-2.33-6.7-5.95-12.61-10.87-17.74s-11.21-9.26-18.87-12.41c-7.66-3.14-16.82-4.85-27.48-5.13l-20.51,12.51-11.69,4.72-11.89-4.72c2.73-8.34,6.32-15.45,10.77-21.33,4.44-5.88,9.47-10.7,15.07-14.46,5.6-3.76,11.62-6.53,18.05-8.31,6.42-1.78,12.99-2.67,19.69-2.67,3.14,0,6.29.21,9.43.62,5.88-3.42,11.31-7.04,16.3-10.87,4.99-3.83,9.33-8.07,13.02-12.71,3.69-4.65,6.56-9.81,8.61-15.48,2.05-5.67,3.08-12.06,3.08-19.17,0-6.15-.65-12-1.95-17.53-1.3-5.54-3.52-10.42-6.67-14.66-3.15-4.24-7.32-7.59-12.51-10.05-5.2-2.46-11.69-3.69-19.48-3.69-8.48,0-15.72,1.27-21.74,3.79-6.02,2.53-10.97,5.61-14.87,9.23-3.9,3.62-6.77,7.52-8.61,11.69-1.85,4.17-2.77,7.9-2.77,11.18,0,4.24,2.73,6.36,8.2,6.36h6.56l4.72,7.38c-2.33,2.46-4.51,4.99-6.56,7.59-2.05,2.6-4.24,5.02-6.56,7.28-2.33,2.26-4.96,4.1-7.9,5.54-2.94,1.44-6.53,2.22-10.77,2.36-1.64-.13-3.32-.79-5.02-1.95-1.71-1.16-3.28-2.84-4.72-5.02-1.44-2.19-2.6-4.78-3.49-7.79-.89-3.01-1.33-6.36-1.33-10.05,0-7.52,1.98-15.31,5.95-23.38,3.96-8.07,9.54-15.38,16.71-21.94s15.76-11.96,25.74-16.2c9.98-4.24,20.99-6.36,33.02-6.36,13.12,0,24.33,2.09,33.63,6.25,9.3,4.17,16.85,9.54,22.66,16.1,5.81,6.56,10.08,13.88,12.82,21.94,2.73,8.07,4.1,16.07,4.1,23.99Z"></path><polygon class="cls-3" points="133.16 82.56 135.93 77.76 138.71 73.47 141.72 69.66 144.49 66.35 147.49 63.31 150.5 60.54 153.74 58.25 156.98 56.22 139.41 49.64 123.69 44.07 116.29 42.04 109.11 40.02 101.96 38.76 95.02 37.75 88.07 37.24 80.91 37.24 77.21 37.48 73.51 37.75 69.82 38.25 65.88 39 58.03 40.52 49.69 42.81 40.69 45.59 31.22 49.13 38.38 53.19 44.63 56.73 50.17 60.54 55.02 63.84 59.18 67.37 62.88 70.91 66.12 74.22 68.89 77.76 71.44 81.57 73.98 85.36 76.07 89.41 78.38 93.97 82.98 103.59 88.31 114.73 86 114.73 83.93 115 81.61 115.24 79.06 116.01 76.75 116.76 74.22 117.77 71.66 118.79 69.35 120.04 64.27 122.84 59.18 126.14 54.33 129.93 49.47 133.98 44.63 138.3 40.22 142.59 36.06 147.15 32.36 151.71 28.91 156.27 25.89 160.58 23.58 164.63 21.73 168.42 27.74 166.66 34.45 165.14 41.61 163.86 49.01 163.11 56.87 162.34 64.97 162.1 73.05 161.84 81.37 162.1 89.7 162.61 97.8 163.36 105.88 164.63 113.52 166.15 120.91 167.92 127.83 169.94 131.31 171.22 134.54 172.47 137.56 173.99 140.33 175.51 141.02 168.93 141.48 162.34 141.72 156.27 141.72 150.19 141.48 144.11 141.02 138.3 140.33 132.46 139.63 126.89 137.78 115.75 135.93 105.11 133.86 94.21 132.23 83.59 132.23 82.56 133.16 82.56"></polygon><path class="cls-3" d="m535.4,199.32l-1.39-8.35-1.16-8.37-.91-8.35-.46-8.37-.24-8.61v-8.61l.24-8.85.68-8.87,1.16-8.85,1.39-9.12,1.61-9.38,2.31-9.12,2.55-9.62-12.72,3.55-12.95,3.04-12.71,3.04-12.72,2.53-12.71,2.53-12.72,2.29-12.71,1.76-12.72,1.76-12.71,1.54-12.72,1.52-12.71,1.01-12.72.75-12.71.77-12.48.51-12.72.24h-25.19l-12.72-.24-12.71-.51-12.48-.77-12.72-.75-12.71-1.01-12.72-1.52-12.71-1.54-12.72-1.76-12.72-1.76-12.71-2.29-12.71-2.53-12.72-2.53-12.95-3.04-12.71-3.04-12.72-3.55,2.55,9.62,2.07,9.12,1.85,9.38,1.39,9.12,1.16,8.85.68,8.87.24,8.85v8.61l-.24,8.61-.68,8.37-.94,8.35-1.15,8.37-1.39,8.35-1.61,8.1-1.08,4.54c.33.19.64.48.88.89.02.03.02.04.03.06.01.01.03.02.05.05.1.1.2.19.3.28.12.11.24.2.37.3.61.22,1.2.48,1.75.81,1.06.63,2.01,1.42,3.04,2.09.25.17.46.36.64.58.65.35,1.31.68,1.99.97,3.4,1.47,6.97,1.54,10.59,2.05,1.93.27,3.81.75,5.7,1.23,1.83.47,3.68.47,5.54.8,1.88.33,3.73,1.26,5.43,2.12,1.69.85,3.21,1.88,4.69,3.05,1.95,1.53,4.47,3.37,5.16,5.88l3.7.65,12.95,2.29,12.95,1.76,12.95,1.78,12.72,1.52,12.48,1.52,12.71,1.01,12.48,1.01,12.48.75,12.26.77,12.24.51,12.26.24h24.26l12.26-.24,12.24-.51,12.26-.77,12.48-.75,12.48-1.01,12.48-1.01,12.71-1.52,12.71-1.52,12.96-1.78,12.95-1.76,12.95-2.29,4.36-.76c.09-.27.2-.53.32-.77.26-.5.74-.84,1.25-1.05.13-.34.31-.66.58-.97.98-1.12,2.36-1.53,3.65-2.17,1.58-.78,3.16-1.52,4.77-2.23,1.62-.72,2.99-1.59,4.44-2.58,3.21-2.2,7.57-2.15,11.31-1.94.94.05,1.87.14,2.81.22,2.18-.15,4.3-.52,6.39-1.45,1.62-.72,3.17-1.67,4.69-2.58,1.58-.95,3.12-1.97,4.52-3.18.34-.3.74-.5,1.15-.61l-1.47-6.27-1.85-8.1Z"></path><polygon class="cls-3" points="175.47 58.51 172.23 59.53 169.22 61.05 166.22 62.81 163.21 64.83 160.44 66.86 157.66 68.91 152.8 73.2 148.65 77.52 147.03 79.28 145.88 81.04 144.96 82.56 144.49 83.84 147.49 84.1 150.26 85.11 153.28 86.11 156.74 87.14 160.44 88.15 165.3 89.41 170.85 90.42 177.54 91.19 178.25 84.34 179.63 74.72 180.32 69.66 180.78 64.59 181.24 60.27 181.48 56.99 178.47 57.5 175.47 58.51"></polygon><polygon class="cls-3" points="138.02 188.18 138.48 186.15 138.93 184.12 139.17 182.36 139.63 180.33 133.86 177.8 127.15 175.51 119.75 173.24 111.43 171.46 102.86 169.7 93.86 168.18 84.39 167.17 75.14 166.4 65.88 165.89 56.65 165.89 47.86 166.4 39.76 167.17 35.84 167.67 32.12 168.42 28.67 169.44 25.43 170.45 22.19 171.46 19.42 172.74 16.89 174.26 14.8 175.78 17.33 170.71 19.88 165.38 23.12 160.32 26.35 155.01 29.83 149.95 33.51 145.12 37.69 140.06 41.85 135.5 46.24 131.2 50.86 127.15 55.7 123.34 60.81 120.04 63.34 118.54 66.12 117.27 68.67 116.01 71.44 114.73 74.22 113.72 76.99 112.97 79.76 112.2 82.76 111.7 80.23 106.12 77.67 100.82 74.9 95.73 71.89 90.93 68.89 86.37 65.65 82.06 62.42 78 58.96 74.22 55.26 70.43 51.32 67.12 47.16 63.84 42.78 60.78 38.15 58.01 33.29 55.47 27.98 53.19 22.66 50.92 19.64 49.9 22.43 48.89 26.59 46.6 30.75 44.58 35.14 42.81 39.3 41.03 43.46 39.53 47.62 38.25 51.78 37.24 55.94 35.96 60.11 35.22 64.27 34.44 68.43 33.94 72.59 33.43 76.99 33.19 89.7 33.19 94.1 33.7 98.48 33.94 102.86 34.71 107.27 35.22 116.29 36.98 125.54 39.27 134.79 42.04 144.49 45.34 154.2 49.13 164.14 53.45 159.05 57.26 153.96 61.55 149.34 66.11 145.4 70.43 142.18 74.46 140.09 77.76 139.41 79.04 139.17 80.05 139.17 80.54 139.41 80.8 139.87 80.8 143.33 77.25 147.03 73.71 150.73 70.67 154.43 67.63 158.12 64.83 161.6 62.57 164.84 60.27 167.83 58.51 173.38 55.47 177.78 53.45 179.39 52.94 180.56 52.44 180.96 52.44 173.84 49.13 166.69 45.85 159.51 42.81 152.58 40.02 145.88 37.75 139.17 35.46 132.47 33.7 126 31.91 119.75 30.66 113.52 29.38 107.51 28.37 101.49 27.86 95.71 27.35 89.94 27.11 78.6 27.11 73.27 27.35 67.97 27.86 62.66 28.63 57.33 29.38 52.25 30.39 47.16 31.67 42.31 32.92 37.45 34.2 32.6 35.72 27.74 37.48 22.9 39.27 18.27 41.29 9.02 45.34 0 49.64 5.09 52.17 13.19 55.98 18.03 58.01 23.12 60.54 28.67 63.31 34.21 66.62 39.76 70.16 45.31 74.22 47.86 76.24 50.4 78.53 52.95 80.8 55.48 83.33 57.57 86.11 59.88 88.64 61.73 91.7 63.58 94.74 65.19 97.78 66.8 101.06 67.97 104.36 68.89 107.91 65.65 108.92 62.66 109.93 59.4 111.19 56.41 112.71 53.63 114.49 50.64 116.25 48.08 118.04 45.31 120.31 42.78 122.33 40.22 124.86 37.69 127.15 35.38 129.69 30.75 134.99 26.59 140.83 22.43 146.64 18.73 152.72 15.04 158.8 11.8 164.88 5.55 177.03 0 188.18 9.25 184.89 18.49 182.1 27.74 179.57 36.99 177.54 46.24 175.78 55.48 174.5 64.49 173.75 73.27 173.24 82.08 173.24 90.86 173.75 95.02 174.26 99.17 174.76 103.34 175.51 107.51 176.28 111.43 177.3 115.59 178.55 119.53 179.83 123.23 181.09 127.15 182.6 130.85 184.39 134.54 186.15 138.02 188.18"></polygon><polygon class="cls-3" points="663.94 164.88 660.7 158.8 657 152.72 653.3 146.64 649.14 140.83 644.98 134.99 640.36 129.69 638.05 127.15 635.51 124.86 632.96 122.33 630.43 120.31 627.65 118.04 624.86 116.25 622.1 114.49 619.09 112.71 616.09 111.19 613.08 109.93 609.84 108.92 606.61 107.91 607.77 104.36 608.92 101.06 610.3 97.78 612.15 94.74 614 91.7 615.85 88.64 617.94 86.11 620.26 83.33 622.79 80.8 625.1 78.53 627.87 76.24 630.43 74.22 635.97 70.16 641.52 66.62 647.07 63.31 652.62 60.54 657.71 58.01 662.55 55.98 670.65 52.17 675.5 49.64 666.49 45.34 657.47 41.29 652.62 39.27 648 37.48 643.13 35.72 638.29 34.2 633.42 32.92 628.34 31.67 623.49 30.39 618.17 29.38 613.08 28.63 607.77 27.86 602.45 27.35 596.9 27.11 585.8 27.11 580.03 27.35 574.24 27.86 568.23 28.37 562.22 29.38 555.99 30.66 549.52 31.91 543.26 33.7 536.57 35.46 529.86 37.75 523.16 40.02 515.98 42.81 509.05 45.85 501.65 49.13 494.76 52.44 495.18 52.44 496.34 52.94 497.95 53.45 502.12 55.47 507.66 58.51 510.9 60.27 514.14 62.57 517.61 64.83 521.31 67.63 525.01 70.67 528.47 73.71 535.87 80.8 536.11 80.8 536.33 80.54 536.57 80.29 536.57 80.05 536.33 79.04 535.63 77.76 533.55 74.46 530.32 70.43 526.4 66.11 521.76 61.55 516.69 57.26 511.36 53.45 521.53 49.13 531.24 45.34 540.73 42.04 550.2 39.27 559.45 36.98 568.23 35.22 572.86 34.71 577.26 33.94 581.64 33.7 585.8 33.19 598.75 33.19 602.91 33.43 607.31 33.94 611.47 34.44 615.63 35.22 619.79 35.96 623.95 37.24 628.11 38.25 632.26 39.53 636.44 41.03 640.6 42.81 644.74 44.58 648.92 46.6 653.08 48.89 656.08 49.9 653.08 50.92 647.76 53.19 642.45 55.47 637.58 58.01 632.96 60.78 628.56 63.84 624.42 67.12 620.48 70.43 616.78 74.22 613.32 78 609.84 82.06 606.85 86.37 603.83 90.93 600.84 95.73 598.06 100.82 595.51 106.12 592.98 111.7 595.75 112.2 598.75 112.97 601.52 113.72 604.29 114.73 606.85 116.01 609.62 117.27 612.15 118.54 614.93 120.04 619.79 123.34 624.64 127.15 629.26 131.2 633.89 135.5 638.05 140.06 641.99 145.12 645.91 149.95 649.38 155.01 652.62 160.32 655.62 165.38 658.39 170.71 660.92 175.78 658.63 174.26 656.08 172.74 653.3 171.46 650.31 170.45 647.07 169.44 643.59 168.42 639.9 167.67 635.97 167.17 627.65 166.4 619.09 165.89 609.84 165.89 600.6 166.4 591.13 167.17 581.88 168.18 572.86 169.7 564.07 171.46 555.99 173.24 548.59 175.51 541.88 177.8 536.11 180.33 536.33 182.36 536.79 184.12 537.25 186.15 537.72 188.18 541.19 186.15 544.89 184.39 548.59 182.6 552.29 181.09 556.21 179.83 560.15 178.55 564.07 177.3 568.23 176.28 572.39 175.51 576.55 174.76 580.71 174.26 584.88 173.75 593.44 173.24 602.22 173.24 611.23 173.75 620.26 174.5 629.5 175.78 638.51 177.54 647.76 179.57 657 182.1 666.25 184.89 675.5 188.18 670.19 177.03 663.94 164.88"></polygon><polygon class="cls-3" points="597.36 93.97 599.67 89.41 601.76 85.36 604.07 81.57 606.85 77.76 609.62 74.22 612.86 70.91 616.56 67.37 620.72 63.84 625.56 60.54 631.11 56.73 637.34 53.19 644.52 49.13 635.05 45.59 626.03 42.81 617.7 40.52 609.62 39 605.92 38.25 602.22 37.75 598.52 37.48 594.83 37.24 587.65 37.24 580.71 37.75 573.78 38.76 566.6 40.02 559.45 42.04 552.05 44.07 536.33 49.64 518.76 56.22 522 58.25 525.01 60.54 528.01 63.31 531.02 66.35 534.02 69.66 536.79 73.47 539.81 77.76 542.58 82.56 543.26 82.56 543.26 83.59 541.64 94.21 539.81 105.11 537.96 115.75 536.11 126.89 535.4 132.46 534.72 138.3 534.24 144.11 534.02 150.19 534.02 162.34 534.48 168.93 535.4 175.51 538.18 173.99 541.19 172.47 544.43 171.22 547.67 169.94 554.6 167.92 562 166.15 569.86 164.63 577.94 163.36 586.04 162.61 594.36 162.1 602.45 161.84 610.77 162.1 618.87 162.34 626.49 163.11 634.13 163.86 641.28 165.14 647.76 166.66 654.01 168.42 652.16 164.63 649.61 160.58 646.83 156.27 643.37 151.71 639.67 147.15 635.51 142.59 630.89 138.3 626.27 133.98 621.4 129.93 616.56 126.14 611.47 122.84 606.37 120.04 603.83 118.79 601.52 117.77 598.97 116.76 596.43 116.01 594.12 115.24 591.81 115 589.5 114.73 587.43 114.73 592.74 103.59 597.36 93.97"></polygon><polygon class="cls-3" points="495.42 69.66 496.1 74.72 497.49 84.34 497.95 91.19 504.89 90.42 510.44 89.41 515.06 88.15 519 87.14 522.46 86.11 525.45 85.11 528.25 84.1 531.24 83.84 530.78 82.56 529.86 81.04 528.47 79.28 526.84 77.52 522.92 73.2 518.06 68.91 515.3 66.86 512.53 64.83 509.51 62.81 506.52 61.05 503.5 59.53 500.27 58.51 497.27 57.5 494.25 56.99 494.48 60.27 494.72 64.59 495.42 69.66"></polygon><g><path class="cls-5" d="m85.67,232.09c-1.57,1.26-3.25,1.16-4.78,2.86-.2-.17-.41-.34-.61-.51,1.01-1.5,3.6-2.62,5.39-2.35Z"></path><path class="cls-5" d="m79.88,238.22c2.21-1.71,4.42-3.49,6.87-2.49-2.55.38-4.7,2.86-6.87,2.49Z"></path><path class="cls-5" d="m89.65,228.56c.17-.2.34-.4.5-.61,3.43-.62,9.32-2.22,12.63-.77-3.76.41-7.56.33-11.28,1.2-.79.45.52.7-.27,1.14-.56-.15-1.51-.14-1.58-.98Z"></path><path class="cls-5" d="m104.9,223.82c-3.21,1.1-8.22-.05-11.92,2.38-.25-.03-.5-.06-.77-.3,1.27-1.95,9.5-2.59,11.58-1.98.41.31.29-1.22,1.11-.1Z"></path><path class="cls-5" d="m88.44,231.66c4.19-1.8,8.55-1.77,12.93-1.54-2.94,1.27-7.67.4-11.25,1.58.6,1.05,2.68.74,3.87,1.51-1.71-.09-4.32.05-5.55-1.55Z"></path><path class="cls-5" d="m87.79,239c-2.37.04-4.15,2.53-6.16,2.05,1.25-1.59,4.07-2.93,6.16-2.05Z"></path><path class="cls-5" d="m81.8,244.95c2.31-1.98,4.65-3.64,7.17-3.26-2.15,1.68-5.36,1.92-6.37,3.94-.27-.22-.54-.45-.81-.67Z"></path><path class="cls-5" d="m100.08,234.53c-2.18,1.35-4.51,1.11-6.73,1.92-.73.56.61.94-.24,1.51-.56-.75-1.03-.35-1.58-.98,1.76-2.27,6.96-2.84,8.55-2.45Z"></path><path class="cls-5" d="m83.04,248.39c2.45-1.11,4.83-3,7.41-2.72-1.4,1.25-4.82,1.4-4.95,3.06-.84.57-2,.79-2.46-.34Z"></path><path class="cls-5" d="m91.49,248.93c-.72.67-1.33,1.38-2.46,1.72.92.55,1.74-.02,2.69.88.15.61-.45,1.29-.57,1.92,1.91.8,2.1,3.1,2.29,4.65-1.61-.55-1.43-2.01-1.78-3.2-.59-.32-1.15-.31-1.72-.41-.78-.74.67-1.68.71-2.49-1.27-.93-2.36.1-3.6-.61.74-1.27,2.93-3.03,4.45-2.46Z"></path><path class="cls-5" d="m102.93,257.79c-.69,3.01-6.11,3.49-6.8,7.34-1.08-3.53,4.76-5.51,6.8-7.34Z"></path><path class="cls-5" d="m106.33,260.29c-1.08,2.65-5.71,4.23-7.01,7.17.16-3.15,4.86-5.79,7.01-7.17Z"></path><path class="cls-5" d="m128.74,231.38c.72-.33,1.36-1.49,2.19-.57-.69.58-1.36,1.51-2.19.57Z"></path><path class="cls-5" d="m109.76,263.15c-1.28,3.61-6.95,3.69-8.82,7.7-.38-.28-.22-.6-.64-.88,2.45-2.75,6.36-4.69,9.46-6.83Z"></path><path class="cls-5" d="m125.16,243.46c.11-.14.23-.27.34-.4,5.21-.16,10.51.61,15.99,3.41-4.93-.79-9.97-2.9-14.81-2.77-.28.73.78.16.64.88-.78.36-1.77-.31-2.15-1.11Z"></path><path class="cls-5" d="m123.78,246.76c.11-.13.22-.27.34-.4,2.5-.8,5.33.49,7.95,1.15,2.59.65,5.63.94,7.54,2.86-4.62-.88-9.37-3.14-13.94-3.41-.29.52.93.91,1.24,1.38-.96.34-2.06-.71-3.13-1.58Z"></path><path class="cls-5" d="m121.55,251.07c5.18.2,10.46,1.44,15.69,2.13-1.64.82-4.52.45-6.9.06-3.03-.48-5.78-1.23-8.79-2.19Z"></path><path class="cls-5" d="m130.65,240.16c.17-.2.34-.4.51-.61,4.12.78,9.27,2.15,12.89,4.25-3.69-.24-7.57-2.54-11.31-3.27-.89.06-.01.63-.64,1.18-.56-.51-1.41-.99-1.45-1.55Z"></path><path class="cls-5" d="m113.77,266.15c-2.04,1.95-8,3.2-8.66,7.5-.83-.42-.66-.93-.87-1.41,3.06-3.39,6.15-6.29,9.53-6.09Z"></path><path class="cls-5" d="m134.89,237.54c3.02-.38,6.17.8,9.39,2.7-2.66.17-5.54-2.03-8.21-2.06-.28.4.58.69.47,1.08-.87.6-2.09-1.07-1.65-1.72Z"></path><path class="cls-5" d="m137.38,236.2c.11-.14.23-.27.34-.41,2.45-.38,5.01.33,7.61,1.55-2.61.06-5.32-.99-7.95-1.15Z"></path><path class="cls-5" d="m117.74,268.77c-2.99,2.1-6.71,4.69-9.03,7.54-.37-.21-.19-.48-.44-.71.1-.2-.04-.37.14-.57,1.18-.82,2.79-2.76,4.48-4.14,1.36-1.11,3.33-3.14,4.85-2.12Z"></path><path class="cls-5" d="m122.32,269.85c-.12.71-1.46,2.2-2.26,1.88-.57,2.79-5.85,4.18-6.43,7.3-.83-.42-.66-.94-.87-1.42.11-.13.22-.27.34-.4,1.37-1.56,3.48-2.65,5.22-4.2,1.25-1.12,2.2-3.38,4.01-3.16Z"></path><path class="cls-5" d="m128.51,272.28c-2.72,3.09-7,4.99-9.7,8.35-.29.18-.6.2-.94-.1.03-.25.06-.51.3-.77,2.83-2.2,6.78-6.77,10.34-7.47Z"></path><path class="cls-5" d="m133.22,274.84c-1.9,2.35-8.4,4.29-8.42,8.04-.39-.61-1.62-.31-1.41-1.18,1.42-2.11,3.74-3.82,5.86-5.38,1.09-.81,2.86-2.29,3.97-1.48Z"></path><path class="cls-5" d="m139.92,276.66c-4.15,2.25-8.29,4.69-12.36,7.84-.29.49.91.7,1.18.64.05,1.38-1.7.42-2.39.4-.11-.24-.21-.48-.07-.74,2.1-3.05,6.08-4.48,9.3-6.63,1.46-.98,3.18-3.38,4.34-1.51Z"></path><path class="cls-5" d="m129.45,286.76c2.35-2.8,5.07-3.61,7.75-5.18,1.6-.93,3.35-2.55,5.22-2.15-3.67,3.47-7.62,3.79-11.32,7,.07.64,1.65.46,2.26.17.24,1.14-2.68,1.63-3.9.17Z"></path><path class="cls-5" d="m143.25,286.63c-2.39-.28-6.06,3.15-9.23,1.21,1.15-1.94,3.59-2.74,5.63-3.87,1.93-1.07,3.97-3.2,6.13-2.42-3.11,2.05-6.3,3.28-9.4,5.52,3.26.94,7.69-3.07,11.58-1.98-2.36,2.12-4.93,1.89-7.17,5.32-.74-1.38,1.2-3.13,2.46-3.77Z"></path><path class="cls-5" d="m160.83,270.48c.11-.14.22-.27.34-.4,5.24-.56,10.7,1.35,16.16,3.21-4.8-.04-9.81-2.53-14.61-2.6,2.92,2.8,7.9,2.64,10.27,6.17-3.61,1.42-7.58-1.19-11.28-.85,2.68,2.07,6.95,2.12,8.48,5.02-2.83,1.04-5.91-.66-8.82-.51-.83-.2-1.53,1.04-2.42.03,2.87-1.99,6.1,0,9.12-.26-2.07-2.05-6.33-2.47-8.08-4.68,3.51-1.76,7.44,1.13,11.07.68-2.78-2.51-7.91-3.28-10.23-5.79Z"></path><path class="cls-5" d="m165.99,267.59c.11-.13.22-.27.34-.4,4.73-1.34,9.74.38,14.81,2.77-4.46-.47-9.11-3.01-13.47-2.33.04,1.21.93.78,1.82,1.52-1.04.95-2.89-.95-3.5-1.55Z"></path><path class="cls-5" d="m169.93,263.68c.21-.37.48-.19.71-.44,3.8.71,8.58,1.39,11.85,3.04-3.59.26-7.39-1.89-11.01-1.99-.1.69,1.34,1.25,1.85,1.89-1,.73-3.38-1.5-3.4-2.49Z"></path><path class="cls-5" d="m149.61,292.97c-.54,2.25-4.07,5.51-6.06,5.22,1.33-1.33,4.12-3.76,6.06-5.22Z"></path><path class="cls-5" d="m175.11,261.16c3.04-.2,7.13.5,9.8,3.03-3.12-.95-7.2-3.21-9.49-1.76-.2-.17-.4-.34-.61-.5.03-.25.06-.5.3-.77Z"></path><path class="cls-5" d="m154.76,294.18c-2.19,1.93-4.29,4.9-6.64,5.08,1.51-1.41,4.34-5.53,6.64-5.08Z"></path><path class="cls-5" d="m159.27,294.52c-1.75,4.13-5.86,7.61-9.7,8.34,1.67-1.76,4.74-3.12,6.8-5.28,1.14-1.2,1.45-2.81,2.9-3.06Z"></path><path class="cls-5" d="m154.12,303.57c3.17-2.14,6.27-5.01,9.4-7.57.55.94-1.15,2.4-1.95,3.16-1.93,1.82-4.82,3.67-6.5,4.51-.27.51-.61.14-.94-.1Z"></path><path class="cls-5" d="m170.25,296.14c-1.34,3.18-7.57,7.44-10.24,8.58-.26-.16-.32-.34-.23-.54,3.56-1.9,6.95-5.71,10.47-8.04Z"></path><path class="cls-5" d="m176.17,297.66c-2.5,2.71-6.56,5.87-9.77,7.6-.17-.3-.2-.6.1-.94,3.31-1.27,6.27-6.37,9.67-6.66Z"></path><path class="cls-5" d="m181.73,297.16c-3.69,3.71-7.84,7.03-11.15,8.85-.26-.16-.32-.34-.24-.54.02-.28.06-.56.34-.4,2.09-1.76,5.04-3.52,7.34-5.52,1.1-.95,1.98-3,3.71-2.39Z"></path><path class="cls-5" d="m184.18,299.55c-.19,1.12-1.87,2.11-3.27,3.1-1.91,1.35-3.74,3-5.49,3.3,2.21-2.42,5.82-5.34,8.76-6.39Z"></path><path class="cls-5" d="m191.32,306.19c-2.2,1.91-2.76,6.34-4.65,6.39-.09-1.7,2.53-6.32,4.65-6.39Z"></path><path class="cls-5" d="m196,304.27c.44,1.34-.95,2.07-1.58,3.13-1.42,2.37-2.12,5.33-3.54,6.29-.75-2.72,3.05-7.67,5.12-9.42Z"></path><path class="cls-5" d="m198.66,304.78c.58,1.9-1.76,4.27-2.8,6.23-.61,1.15-.18,3.51-1.72,3.7-.72-2.98,2.52-7.32,4.52-9.93Z"></path><path class="cls-5" d="m204.25,302.59c.74,2.29-1.47,4.75-2.73,6.97-1.35,2.38-2.47,4.99-3.84,7.07-.75-1.72.84-4.04,1.89-5.96,1.4-2.56,3.75-5.44,3.98-7.64.24-.07.48-.15.71-.44Z"></path><path class="cls-5" d="m207.24,302.69c.29-.21.62-.02.91-.27-.74,3.74-3.04,8.61-5.83,11.91-.48-1.66,1.31-3.76,2.12-5.42,1.03-2.09,2.37-4.5,2.8-6.23Z"></path><path class="cls-5" d="m212.7,301.08c-.57,2.98-2.88,6.11-3.84,9.12-.21,1.02-.42,3.48-2.16,3,1.42-3.77,3.06-9.44,6-12.12Z"></path><path class="cls-5" d="m161.7,222.24c.8.53,3.09-.25,4.51.34-.06-.49.53-1.04.98-1.58,4.61-.07,10.51,3.55,14.94,8.36.33.19.57-.55.91-.27,1.25,2.63,2.84,5.22,3.7,7.88,3.56,3.87,9.88,5.53,14.07,4.89,1.14-.18,2.26-1.71,3.33-.3-.29,2.2-3.41.39-3.74,2.02-6.11-.09-11.87,3.66-17.85,4.97-3,2.48-6.73,3.56-10.1,5.95-1.85,1.31-3.2,3.25-4.99,4.74-3.56,2.98-7.79,5.78-11.89,6.86-.45.53-.89,1.22-1.38,1.24.6-3.41,5.86-4.17,8.29-7.47-1.56-.74-2.92.77-4.38,1.14-.24-2.94,4.14-2.09,5.89-2.96-.17-1.05-1.79-.6-2.59-1.82,1.68-2.47,5.25-.77,7.64-2.19-.49-1.2-3.8-.96-3.77-2.46,2.49-1.36,5.25.27,7.78-.7-.54-.78-3.49-.62-4.14-2.43,3.72-.81,7.73,1.49,11.28-1.2-.74-.57-3.02-.36-4.34-.54-.23.52,1,.35,1.38.81-1.38.62-2.89-.28-4.41-1.28,4.16-1.49,8.72,1.46,12.76-1.34-1.61-1.19-5.52.64-7.2-1.22,3.43-1.33,7.21,1.27,10.64-.03-3.42-2.93-7.33-.05-10.57-3.34-.86.07-1.68.7-2.53.98.45,1.21,1.17.14,1.62,1.35-2-.12-4.15-1.88-6.23-2.8-.71-.37-.17.59-.67.81-.24-1.13-1.61-1-2.42-2.02-.34.4-.67.81-1.01,1.21.96.94,3.49,1.41,5.08,2.53.04-.31-.29-.6.1-.94.38.53,1.68.97,1.45,1.55-1.44,1.47-4.89-1.9-7.1-2.16.19,1.45,1.2,1.06,1.88,2.26-1.02-.26-2.08-1.02-3.16-1.95-.34.4-.67.81-1.01,1.21,1.89.92,3.74,1.47,5.62,2.29-2.09.94-4.49-1.49-6.67-1.45.33,1.33,3.7,2.77,4.14,4.48-2.35.13-4.83-1.09-7.27-1.96.46,1.09,1.33,1.53,2.25,2.23-1.15,1.08-2.71-2.4-3.77-.41,1.03,1.44,4.42,1.03,5.45,2.49-1.86.06-3.78-.55-5.72-1.35.05.81,1.47,1.49,1.51,2.29-.4,1.8-2.49.97-3.64,1.08.66,2.24-1.52,5.03-3.77,5.75-1.28-2.02,4.41-2.98,1.92-5.59-2.42.93-3.37,4.22-4.48,6.19-.7-1.12.04-2.37.98-3.64-1.89,1.32-2.16,3.14-3.67,4.81.77-.4,1.6-.25,2.32-1.14-1.57,1.57-3.54,4.93-3.54,6.3-.3.78-.75-.02-1.14-.27-.83,2.84,2.02,5.29,4.71,4.61.02.58-2.9,1.27-3.84.91-1.68-.64-2.84-3.48-2.73-5.35.51-8.1,8.91-19.09,17.79-26.25,4.7-3.79,11.65-5.91,15.83-8.71,1.29.05,1.65,1.67,2.66.51-3.68-4.94-8.46-4.09-12.59-7.08-14-.04-27.31,7.72-40.74,13.95-3.27,3.42-9.18,5.43-12.33,10.26-3.36-.56-8.35,5.5-10.87-.51-1.53-3.63-.28-8.97,1.86-12.49,7.75-12.76,21.89-16.78,30.18-21.4-4.34-1.25-8.55-.99-12.89-2.2-8.27.8-16.49,2.14-24.41,6.69-4.8.5-11.15,4.94-14.69,11.04-8.37,5.72-2.84,14.74-4.02,21.65.43.64.76.15,1.18.64-2.71,1.38-5.24-2.58-5.28-4.75-.26-.17-.48.22-.71.44-.87-2.47-.31-5.07-.87-7.57,1.17-.72.97-2.79.2-3.94,3.26-12.21,16.11-19.46,26.24-23.65,7-2.89,16.98-3.67,24.95-2.81,5.61.6,9.99.89,15.52,4.39.8.44-.33-1.41.47-.98,1.01.7,2,1.74,2.52,3.13,5.94,5.15,11.25,3.31,16.73,3.34.31.69.28.95-.44,1.35.69.11,1.34-.29,2.02-.37.3,1.64,1.59,1.23,2.79,1.99-.8.81-1.64,1.12-2.53.97Zm-54.3-10.03c-.88.6-1.85.21-2.73.81.83.16,2.6-.11,2.73-.81Zm-1.13,32.96c-.47,1.03-1.08.43-1.58,1.07,2.41,3.8,7.13-.35,10.24-2.42.3-.4-.55-.7-.1-1.11,4.08-3.09,8.15-6.22,12.26-8.95-1.19-.52-.42-2.19.54-2.29,1.38.56-.2,1.39,0,2.05,3.63-.51,3.67-5.9,6.16-6.16-.29.77-1.34,1.61-.91,2.32,2.09-.5,2.93-3.1,3.1-4.95-2.96-1.09-5.92-2.12-8.92-3.67-.77.43-1.57.5-2.33,1.14,2.47,1.19,5.83,1.22,7.78,3.4-3.34.21-8.14-4.68-10.57-1.28,2.72,1.2,6.38,1.74,8.55,3.71-3.22-.55-6.54-2.12-9.83-3.41-.67.92-2.37,1.18-2.39,2.45,2.93,1.16,7.68,1.35,9.49,3.81-4.2-.07-9.78-5.22-13.84-2.3,3.14,2.2,7.98,1.9,9.9,4.15-2.74-.04-5.6-1.41-8.45-2.6-.21,1.38-1.37.23-2.29-.54-.43.75-.92.83-1.38,1.25,3.15,1.75,7.13,1.85,9.69,3.98-2.99.04-7.02-2.97-9.33-1.96-.5-.66-.88-.15-1.38-.81-.39.47-.79.94-1.18,1.41,2.56,1.17,6.9,1.1,8.35,3.54-2.75-.82-5.56-2.34-8.25-2.43.64.79,2.14.38,2.19,1.48-1.29.2-2.77-1.79-4-.95,2.52,1.95,7.4.91,8.18,3.74-2.36-.62-4.78-1.89-7.1-2.16.34.65,1.47.19,1.21,1.01-.99.14-2.08-1.39-3.43-.81,2.13,1.57,5.79,2.08,8.55,3.71-2.27.43-4.75-1.57-7.07-1.79,1.67,1.78,4.73,1.77,4.85,4.04-2.73.03-5.56-.95-8.31-1.12,1.43-2.27,4.9.65,7.1.1-2.61-1.47-4.68-2.86-6.66-3.5-1.97,1.79-1.83,6.55,1.17,6.8Zm31.19-20.55c-.33,1.15-1.37,2.36-1.18,3.47,2.79-1.1,3.75-3.04,5.25-5.89-3.19-.84-6.68-5.04-9.59-2.87,1.75,1.55,5.17,1.54,5.76,3.77-3.2-1.05-6.63-4.55-9.56-2.5,3.13,1.56,6.2,2.53,9.32,4.01Zm-5.11-7.01c-.68-.49-2.18.56-2.16.94.7-.49,1.47-.22,2.16-.94Zm3.27-1.04c-.86-.57-1.6.23-2.39.4.89.92,1.59-.34,2.39-.4Zm6.39,4.65c1.17,1.39-1.4,3.25-1.11,4.21.35-.2.63-1.24,1.04-.84-.28.58-1.47,1.25-1.15,1.78,1.16-.47,2.93-3.04,2.29-3.57,1.12.63.74-2.47,2.12-1.31.49.64-.99,1.46-.37,2.09.69-1.34,2.52-.92,2.59-2.29-3.77.94-8.18-5.17-11.85-3.04,2.13.84,4.33,2.48,6.43,2.97Zm5.35,1.38c-.75.7-2.49,1.29-2.59,2.29,1.17-.28,2.12-1.11,2.59-2.29Zm4.04-.74c-.36.16-.74.01-1.14-.27-.23.52-1.36,1.12-.98,1.58.57-.73,2.17-.63,2.12-1.31Zm1.14,2.32c-.55.07-1.08.43-1.62.71.49.44,1.83-.19,1.62-.71Zm-.08,28.01c.84-1.01,1.68-2.02,2.53-3.03-1.37.02-2.33,2.15-2.53,3.03Zm8.86-9.39c-.63-.17-1.14,1.21-1.72,1.65.55.77,2.5-1.01,1.72-1.65Zm2.93-2.69c-.49.21-1.88,1.11-1.72,1.65.49.07,2.52-.8,1.72-1.65Zm2.96-2.32c-.57.61-1.2.5-1.75,1.28.57.7,1.92-.63,1.75-1.28Zm-8.36,12.89c-.54-.45-1.08-.9-1.61-1.35-.23.52-1.36,1.12-.98,1.58.86-.15,1.8.63,2.59-.23Zm7.48-4.04c-1.23-.55-2.52-1.77-3.8-2.83-.43.72-.96.41-1.38,1.24,1.74.68,3.5,1.59,5.18,1.59Zm16.14-15.65c.25-.4.04-.75-.47-1.08-.54.3-1.15.94-1.18,1.41.51-.56,1.15.37,1.65-.34Zm1.38,2.86c-.28-.54-.08-1.11-.71-1.62-.26.85-.54.53-1.18,1.41.7.9,1.29.52,1.89.2Zm-18.43,23.32c.44-.79,1.89-.92,1.72-1.65-1.2.51-2.5-.11-3.67.71.67.5,1.27.28,1.95.94Zm5.42-4.04c.26-.85,1.53-.62,1.18-1.41-1.24.73-2.6.16-3.87.54.91.43,1.82.87,2.69.88Zm13.1-12.01c-1.02-.72-1.63-1.47-2.26-2.22-.74.79-1.57.49-2.32,1.14,1.59,1.04,3.11,1.34,4.58,1.08Zm-9.77,9.66c.26-.85,1.53-.62,1.18-1.41-1.08.47-2.26-.26-3.37-.07.77,1.04,2.02.65,2.19,1.48Zm13.5-9.62c-.43-1.08-2.24-2.04-3.26-3.07-.47.32-.98.16-1.41.87,1.59,1.12,3.28,3.25,4.68,2.19Zm4.28,1.85c-.55-.55-1-.06-1.55-.61-.17.2-.34.4-.51.61.73.49,1.38.13,2.05,0Z"></path><path class="cls-5" d="m80.24,256.67c.97-.9.56-1.17,1.62-2.76.79.36.36.84.67,1.24.98.1.79-.86,1.58-1.07,3.09,8.03,9.72,15.98,17.73,22.67,12.61,10.52,26.23,13.18,38,17.66-.55,1.33-2.7,1.36-4.07.37.15,1.94,3.38,1.74,4.04,3.37-.7,1.22-1.61.06-2.36.77-9.65-3.93-20.41-7.13-29.82-13.92-5.35-3.86-10.7-8.33-15.24-13.74-.25-.26-.6.89-.57-.13-.43.05-.58-.35-.2-.17-4.38-4.71-9.2-9.94-11.37-14.28Z"></path><path class="cls-5" d="m220.14,300.78c-2.59,2.85-3.39,6.36-6.37,10.1-1.23-1.41.54-2.88,1.11-4.21,1.06-2.44,1.53-5.91,3.6-7.61.52,1.65-.89,2.95-1.79,5.02,1.35-.55,2.01-3.62,3.44-3.3Z"></path><path class="cls-5" d="m203.81,246.06c.62-.74,1.24-1.48,1.85-2.22,1.02,1,1.93.67,2.79-.06,4.25,3.46,10.57,6.48,14.47,11.39-1.01,1.2-2.24,0-3.43-.81-3.17-.04-8.42-1.7-10.2-5.43-2.12-.41-3.73-2.88-5.49-2.87Zm4.95,1.05c-.63-.67-2.23-1.46-2.12-.74.66-.24,1.49,1.3,2.12.74Zm7.57,5.29c-1.77-.31-3.69-2.25-5.49-2.87,1.04,1.55,4.67,3.75,5.49,2.87Z"></path><path class="cls-5" d="m176.94,312.34c1.14.18,2.29.5,3.4.44.21.36.26.73.47,1.08,10.8,4.41,25.02,3.91,36.5,1,7.2-1.83,17.39-6.36,20.34-16.59.93-3.21.61-8.51.75-12.39.09-2.7.14-4.39-.63-7.04-1.32-.82-1.77-2.49-2.86-2.73-.1.69,1.18,1.26.37,2.02-.06-.79-.66-.38-1.21-1.01-.79.45.53.7-.27,1.15-3.05.01-6.2-1.1-9.03,1.37-3.94-.88-8.41-.46-13.54,1.04-3.74,1.1-8.44,2.37-10.84,3.97-3.21,2.13-13.75,6.12-16.97,4.34-1.48-.82-1.86-2.63-3.6-2.66-.68-1.06.46-2.28-.67-3.3,7.8-9.86,14.77-15.12,24.69-20.15,5.93-3.01,12.51-5.09,17.31-4.74.71.28.23-1.01,1.04-.84.98.6-.07,1.38.74,1.99.3,0,.81-1.3,1.62-.7,1.24,2.04.53,4.7,2.49,6.87,1.86,2.06,5.03,2.87,7.5,4.55-1.81.66-3.88-1.58-5.79-2.09.16.92,1.89,1.7,2.66,2.56-.66.66-.97.03-1.21,1.04-1.17-1.08-2.85-2.11-3.46-3.23.32,1.21.78,2.42,1.81,3.57-4.34.1-6.63-5.01-7.1-8.32-2.1-.49-4.09.22-6.09.74,1.96,1.61,2.66,2.66,4.65,3.88-.16-1.48-2.88-2.73-2.25-4.28.79-.23,1.79.49,2.15,1.11-.27.49-.58.42-.88.64,1.52,1.33,2.38,1.99,3.26,3.06-.21.41-.47.25-.74.07-.56,1,1.13.63,1.08,1.58-2.24-.36-6.86-3.66-8.18-5.79-.52-.19-.99.09-1.45.5,1.31,2.06,5.17,3.94,6.87,5.73-2.85-.11-6.24-3-8.31-5.22-.8.04-1.56.69-2.36.77,1.6,2.48,4.64,3.21,6.83,5.35-2.7-.94-5.98-2.14-8.25-4.48-.79.14-1.58.47-2.36.77,2.46,1.35,5.83,3.1,7.71,4.72-1.95.94-5.26-3.76-6.53-2.02-.75-.68-1.9-1.32-1.68-2.09-.89-.22-1.7.52-2.53.98,2.35,1.77,5.57,2.6,7.3,4.38-2.36,0-4.91-1.96-7.41-3.44-.09.82,1.81,1.46,1.14,2.32-1.84-1.44-4.15-3.43-6.13-1.69,3.59,1.84,7.15,3.35,10.77,5.56-3.2-.25-6.61-2.85-9.9-4.15-.24.96,2.74,1.62,1.92,2.63-.78-1.44-3.38-1.1-4.21-3.17-.23.27-.45.54-.67.81-.32.74.69-.22.98.47-.28.38-.6.22-.88.64,2.65,1.07,5.27,1.86,7.98,3.57-2.29.87-4.91-1.99-7.3-2.33.6,1.31,3.07,2.46,3.33,3.81-2.25.56-4.71-1.2-7.07-1.79.6,1.32,3.16,2.45,2.96,3.84-1.79.86-3.72.18-5.59.13-.69.87,1.02,1.52.4,2.39-1.82,1.54-4.35.48-5.56,2.56-1.13-2.41,2.85-2.6,4.21-2.99-.34-.72-.55-1.44-.57-2.19,1.74-1.38,3.7-.38,5.56-.5-.16-1.29-3.67-2.28-2.76-3.67-3.3.93-9.43,7.82-7.28,10.37,2.74,3.24,7.97-1.56,11.11-1.01.37-2.01,2.69-2.21,4.58-3.03.04-.31-.29-.6.1-.94,10.81-4.36,21.78-6.87,33-6.72.38.03.77.19,1.18.64.52-.36,1.14-1.27,2.12-1.31,1.01.98,1.62,2.77,3,2.16,3.11,6.42,3.66,14.73,2.01,22.22-1.47,6.66-9.34,12.92-15.09,16.86-8.03,2.72-16.12,4.81-24.28,6.11-15.19.62-31.24-8.31-46.83-12.01-5.23-2.75-14.71-4.61-18.51-10.65.6-.98,1.36-.11,2.09.37,1.72-.1,2.9,1.11,4.28,1.85,13.21,7.12,27.18,10.27,39.72,7.8.23,1.36.32.84,1.65,1.72-2.18,1.38-4.6.03-6.8,1.17Zm20.99-34.19c-1.78-1.55-4.17-2.91-4.85-4.04-.47,1.11-2,1.16-1.85,2.22,2.15-.28,4.49,1.51,6.7,1.82Zm11.69-13.19c1.78-.98,4.63-1.05,5.76-2.39-1.73.38-5.3,1.65-5.76,2.39Zm14.18-2.22c-.21-.49-.28-1.95-1.28-1.75.18.49.84,1.9,1.28,1.75Zm6.35,14.55c-5.45-1.11-11.72-.24-16.3,1.47,5.37-1.16,10.82-1.47,16.3-1.47Zm9.12,16.17c.98-2.76.76-6.41-.2-8.38.03,2.8.06,5.59.2,8.38Zm-13.95,21.24c.37-.78-3.12.74-3.27,1.04,1.1-.26,2.16-.85,3.27-1.04Z"></path><path class="cls-5" d="m232.47,284.36c.31-.67.74-.07,1.08-.47.05,3.99-.76,7.74-1.18,11.68-.25,2.29.16,5.13-1.96,7.27-.84-.92-.67-1.93-.27-2.96-1.85,1.23-1.99,3.91-3.77,5.76-1.4-2.18.5-4.65.68-6.97-4.04,1.2-4.4,8.29-8.02,10.43-1.09-3.01,2.52-6.45,2.87-9.59.43-.84-.9-1.52.74-2.12,1.25,2.44-1.19,5.21-2.09,7.84,2.19-1.86,4.07-7.85,7.48-8.14.7,1.3-.15,2.75-.74,4.17,6.02-5.27,4.67-11.5,5.19-16.9Z"></path></g><g><path class="cls-5" d="m591.82,232.09c1.57,1.26,3.25,1.16,4.78,2.86.2-.17.41-.34.61-.51-1.01-1.5-3.6-2.62-5.39-2.35Z"></path><path class="cls-5" d="m597.62,238.22c-2.21-1.71-4.42-3.49-6.87-2.49,2.55.38,4.7,2.86,6.87,2.49Z"></path><path class="cls-5" d="m587.85,228.56c-.17-.2-.34-.4-.5-.61-3.43-.62-9.32-2.22-12.63-.77,3.76.41,7.56.33,11.28,1.2.79.45-.52.7.27,1.14.56-.15,1.51-.14,1.58-.98Z"></path><path class="cls-5" d="m572.59,223.82c3.21,1.1,8.22-.05,11.92,2.38.25-.03.5-.06.77-.3-1.27-1.95-9.5-2.59-11.58-1.98-.41.31-.29-1.22-1.11-.1Z"></path><path class="cls-5" d="m589.06,231.66c-4.19-1.8-8.55-1.77-12.93-1.54,2.94,1.27,7.67.4,11.25,1.58-.6,1.05-2.68.74-3.87,1.51,1.71-.09,4.32.05,5.55-1.55Z"></path><path class="cls-5" d="m589.71,239c2.37.04,4.15,2.53,6.16,2.05-1.25-1.59-4.07-2.93-6.16-2.05Z"></path><path class="cls-5" d="m595.7,244.95c-2.31-1.98-4.65-3.64-7.17-3.26,2.15,1.68,5.36,1.92,6.37,3.94.27-.22.54-.45.81-.67Z"></path><path class="cls-5" d="m577.41,234.53c2.18,1.35,4.51,1.11,6.73,1.92.73.56-.61.94.24,1.51.56-.75,1.03-.35,1.58-.98-1.76-2.27-6.96-2.84-8.55-2.45Z"></path><path class="cls-5" d="m594.46,248.39c-2.45-1.11-4.83-3-7.41-2.72,1.4,1.25,4.82,1.4,4.95,3.06.84.57,2,.79,2.46-.34Z"></path><path class="cls-5" d="m586.01,248.93c.72.67,1.33,1.38,2.46,1.72-.92.55-1.74-.02-2.69.88-.15.61.45,1.29.57,1.92-1.91.8-2.1,3.1-2.29,4.65,1.61-.55,1.43-2.01,1.78-3.2.59-.32,1.15-.31,1.72-.41.78-.74-.67-1.68-.71-2.49,1.27-.93,2.36.1,3.6-.61-.74-1.27-2.93-3.03-4.45-2.46Z"></path><path class="cls-5" d="m574.57,257.79c.69,3.01,6.11,3.49,6.8,7.34,1.08-3.53-4.76-5.51-6.8-7.34Z"></path><path class="cls-5" d="m571.17,260.29c1.08,2.65,5.71,4.23,7.01,7.17-.16-3.15-4.86-5.79-7.01-7.17Z"></path><path class="cls-5" d="m548.76,231.38c-.72-.33-1.36-1.49-2.19-.57.69.58,1.36,1.51,2.19.57Z"></path><path class="cls-5" d="m567.73,263.15c1.28,3.61,6.95,3.69,8.82,7.7.38-.28.22-.6.64-.88-2.45-2.75-6.36-4.69-9.46-6.83Z"></path><path class="cls-5" d="m552.34,243.46c-.11-.14-.23-.27-.34-.4-5.21-.16-10.51.61-15.99,3.41,4.93-.79,9.97-2.9,14.81-2.77.28.73-.78.16-.64.88.78.36,1.77-.31,2.15-1.11Z"></path><path class="cls-5" d="m553.72,246.76c-.11-.13-.22-.27-.34-.4-2.5-.8-5.33.49-7.95,1.15-2.59.65-5.63.94-7.54,2.86,4.62-.88,9.37-3.14,13.94-3.41.29.52-.93.91-1.24,1.38.96.34,2.06-.71,3.13-1.58Z"></path><path class="cls-5" d="m555.94,251.07c-5.18.2-10.46,1.44-15.69,2.13,1.64.82,4.52.45,6.9.06,3.03-.48,5.78-1.23,8.79-2.19Z"></path><path class="cls-5" d="m546.85,240.16c-.17-.2-.34-.4-.51-.61-4.12.78-9.27,2.15-12.89,4.25,3.69-.24,7.57-2.54,11.31-3.27.89.06.01.63.64,1.18.56-.51,1.41-.99,1.45-1.55Z"></path><path class="cls-5" d="m563.73,266.15c2.04,1.95,8,3.2,8.66,7.5.83-.42.66-.93.87-1.41-3.06-3.39-6.15-6.29-9.53-6.09Z"></path><path class="cls-5" d="m542.6,237.54c-3.02-.38-6.17.8-9.39,2.7,2.66.17,5.54-2.03,8.21-2.06.28.4-.58.69-.47,1.08.87.6,2.09-1.07,1.65-1.72Z"></path><path class="cls-5" d="m540.11,236.2c-.11-.14-.23-.27-.34-.41-2.45-.38-5.01.33-7.61,1.55,2.61.06,5.32-.99,7.95-1.15Z"></path><path class="cls-5" d="m559.76,268.77c2.99,2.1,6.71,4.69,9.03,7.54.37-.21.19-.48.44-.71-.1-.2.04-.37-.14-.57-1.18-.82-2.79-2.76-4.48-4.14-1.36-1.11-3.33-3.14-4.85-2.12Z"></path><path class="cls-5" d="m555.18,269.85c.12.71,1.46,2.2,2.26,1.88.57,2.79,5.85,4.18,6.43,7.3.83-.42.66-.94.87-1.42-.11-.13-.22-.27-.34-.4-1.37-1.56-3.48-2.65-5.22-4.2-1.25-1.12-2.2-3.38-4.01-3.16Z"></path><path class="cls-5" d="m548.99,272.28c2.72,3.09,7,4.99,9.7,8.35.29.18.6.2.94-.1-.03-.25-.06-.51-.3-.77-2.83-2.2-6.78-6.77-10.34-7.47Z"></path><path class="cls-5" d="m544.27,274.84c1.9,2.35,8.4,4.29,8.42,8.04.39-.61,1.62-.31,1.41-1.18-1.42-2.11-3.74-3.82-5.86-5.38-1.09-.81-2.86-2.29-3.97-1.48Z"></path><path class="cls-5" d="m537.58,276.66c4.15,2.25,8.29,4.69,12.36,7.84.29.49-.91.7-1.18.64-.05,1.38,1.7.42,2.39.4.11-.24.21-.48.07-.74-2.1-3.05-6.08-4.48-9.3-6.63-1.46-.98-3.18-3.38-4.34-1.51Z"></path><path class="cls-5" d="m548.05,286.76c-2.35-2.8-5.07-3.61-7.75-5.18-1.6-.93-3.35-2.55-5.22-2.15,3.67,3.47,7.62,3.79,11.32,7-.07.64-1.65.46-2.26.17-.24,1.14,2.68,1.63,3.9.17Z"></path><path class="cls-5" d="m534.25,286.63c2.39-.28,6.06,3.15,9.23,1.21-1.15-1.94-3.59-2.74-5.63-3.87-1.93-1.07-3.97-3.2-6.13-2.42,3.11,2.05,6.3,3.28,9.4,5.52-3.26.94-7.69-3.07-11.58-1.98,2.36,2.12,4.93,1.89,7.17,5.32.74-1.38-1.2-3.13-2.46-3.77Z"></path><path class="cls-5" d="m516.66,270.48c-.11-.14-.22-.27-.34-.4-5.24-.56-10.7,1.35-16.16,3.21,4.8-.04,9.81-2.53,14.61-2.6-2.92,2.8-7.9,2.64-10.27,6.17,3.61,1.42,7.58-1.19,11.28-.85-2.68,2.07-6.95,2.12-8.48,5.02,2.83,1.04,5.91-.66,8.82-.51.83-.2,1.53,1.04,2.42.03-2.87-1.99-6.1,0-9.12-.26,2.07-2.05,6.33-2.47,8.08-4.68-3.51-1.76-7.44,1.13-11.07.68,2.78-2.51,7.91-3.28,10.23-5.79Z"></path><path class="cls-5" d="m511.51,267.59c-.11-.13-.22-.27-.34-.4-4.73-1.34-9.74.38-14.81,2.77,4.46-.47,9.11-3.01,13.47-2.33-.04,1.21-.93.78-1.82,1.52,1.04.95,2.89-.95,3.5-1.55Z"></path><path class="cls-5" d="m507.57,263.68c-.21-.37-.48-.19-.71-.44-3.8.71-8.58,1.39-11.85,3.04,3.59.26,7.39-1.89,11.01-1.99.1.69-1.34,1.25-1.85,1.89,1,.73,3.38-1.5,3.4-2.49Z"></path><path class="cls-5" d="m527.89,292.97c.54,2.25,4.07,5.51,6.06,5.22-1.33-1.33-4.12-3.76-6.06-5.22Z"></path><path class="cls-5" d="m502.38,261.16c-3.04-.2-7.13.5-9.8,3.03,3.12-.95,7.2-3.21,9.49-1.76.2-.17.4-.34.61-.5-.03-.25-.06-.5-.3-.77Z"></path><path class="cls-5" d="m522.74,294.18c2.19,1.93,4.29,4.9,6.64,5.08-1.51-1.41-4.34-5.53-6.64-5.08Z"></path><path class="cls-5" d="m518.23,294.52c1.75,4.13,5.86,7.61,9.7,8.34-1.67-1.76-4.74-3.12-6.8-5.28-1.14-1.2-1.45-2.81-2.9-3.06Z"></path><path class="cls-5" d="m523.38,303.57c-3.17-2.14-6.27-5.01-9.4-7.57-.55.94,1.15,2.4,1.95,3.16,1.93,1.82,4.82,3.67,6.5,4.51.27.51.61.14.94-.1Z"></path><path class="cls-5" d="m507.25,296.14c1.34,3.18,7.57,7.44,10.24,8.58.26-.16.32-.34.23-.54-3.56-1.9-6.95-5.71-10.47-8.04Z"></path><path class="cls-5" d="m501.33,297.66c2.5,2.71,6.56,5.87,9.77,7.6.17-.3.2-.6-.1-.94-3.31-1.27-6.27-6.37-9.67-6.66Z"></path><path class="cls-5" d="m495.77,297.16c3.69,3.71,7.84,7.03,11.15,8.85.26-.16.32-.34.24-.54-.02-.28-.06-.56-.34-.4-2.09-1.76-5.04-3.52-7.34-5.52-1.1-.95-1.98-3-3.71-2.39Z"></path><path class="cls-5" d="m493.31,299.55c.19,1.12,1.87,2.11,3.27,3.1,1.91,1.35,3.74,3,5.49,3.3-2.21-2.42-5.82-5.34-8.76-6.39Z"></path><path class="cls-5" d="m486.18,306.19c2.2,1.91,2.76,6.34,4.65,6.39.09-1.7-2.53-6.32-4.65-6.39Z"></path><path class="cls-5" d="m481.5,304.27c-.44,1.34.95,2.07,1.58,3.13,1.42,2.37,2.12,5.33,3.54,6.29.75-2.72-3.05-7.67-5.12-9.42Z"></path><path class="cls-5" d="m478.84,304.78c-.58,1.9,1.76,4.27,2.8,6.23.61,1.15.18,3.51,1.72,3.7.72-2.98-2.52-7.32-4.52-9.93Z"></path><path class="cls-5" d="m473.25,302.59c-.74,2.29,1.47,4.75,2.73,6.97,1.35,2.38,2.47,4.99,3.84,7.07.75-1.72-.84-4.04-1.89-5.96-1.4-2.56-3.75-5.44-3.98-7.64-.24-.07-.48-.15-.71-.44Z"></path><path class="cls-5" d="m470.25,302.69c-.29-.21-.62-.02-.91-.27.74,3.74,3.04,8.61,5.83,11.91.48-1.66-1.31-3.76-2.12-5.42-1.03-2.09-2.37-4.5-2.8-6.23Z"></path><path class="cls-5" d="m464.8,301.08c.57,2.98,2.88,6.11,3.84,9.12.21,1.02.42,3.48,2.16,3-1.42-3.77-3.06-9.44-6-12.12Z"></path><path class="cls-5" d="m513.27,221.26c1.21-.76,2.49-.35,2.79-1.99.68.08,1.33.48,2.02.37-.72-.4-.74-.65-.44-1.35,5.48-.03,10.79,1.81,16.73-3.34.52-1.39,1.51-2.43,2.52-3.13.8-.44-.33,1.41.47.98,5.53-3.5,9.91-3.78,15.52-4.39,7.97-.86,17.95-.08,24.95,2.81,10.13,4.19,22.98,11.44,26.24,23.65-.76,1.15-.97,3.22.2,3.94-.56,2.5,0,5.1-.87,7.57-.23-.21-.44-.6-.71-.44-.05,2.17-2.57,6.13-5.28,4.75.42-.49.75,0,1.18-.64-1.18-6.91,4.35-15.93-4.02-21.65-3.53-6.1-9.88-10.54-14.69-11.04-7.93-4.54-16.15-5.89-24.41-6.69-4.34,1.21-8.55.94-12.89,2.2,8.28,4.61,22.43,8.63,30.18,21.4,2.14,3.52,3.39,8.86,1.86,12.49-2.53,6.01-7.51-.05-10.87.51-3.15-4.83-9.06-6.84-12.33-10.26-13.44-6.23-26.74-13.99-40.74-13.95-4.13,2.98-8.9,2.13-12.59,7.08,1.01,1.17,1.37-.46,2.66-.51,4.18,2.8,11.13,4.92,15.83,8.71,8.88,7.16,17.28,18.15,17.79,26.25.12,1.88-1.04,4.71-2.73,5.35-.94.36-3.86-.32-3.84-.91,2.69.68,5.55-1.77,4.71-4.61-.4.25-.84,1.05-1.14.27,0-1.36-1.97-4.73-3.54-6.3.73.89,1.55.74,2.32,1.14-1.51-1.68-1.79-3.49-3.67-4.81.93,1.27,1.68,2.52.98,3.64-1.11-1.97-2.06-5.26-4.48-6.19-2.49,2.61,3.2,3.57,1.92,5.59-2.26-.72-4.43-3.51-3.77-5.75-1.15-.1-3.24.72-3.64-1.08.05-.81,1.47-1.49,1.51-2.29-1.94.8-3.86,1.41-5.72,1.35,1.04-1.46,4.43-1.06,5.45-2.49-1.06-2-2.62,1.48-3.77.41.92-.69,1.79-1.14,2.25-2.23-2.44.87-4.92,2.08-7.27,1.96.44-1.7,3.81-3.15,4.14-4.48-2.17-.04-4.57,2.39-6.67,1.45,1.88-.82,3.74-1.37,5.62-2.29-.34-.4-.67-.81-1.01-1.21-1.08.94-2.14,1.69-3.16,1.95.68-1.2,1.69-.81,1.88-2.26-2.21.26-5.66,3.63-7.1,2.16-.23-.58,1.07-1.03,1.45-1.55.39.35.06.63.1.94,1.6-1.12,4.12-1.59,5.08-2.53-.34-.4-.67-.81-1.01-1.21-.81,1.02-2.18.89-2.42,2.02-.51-.22.04-1.18-.67-.81-2.08.92-4.23,2.68-6.23,2.8.45-1.21,1.17-.14,1.62-1.35-.85-.28-1.66-.91-2.53-.98-3.24,3.29-7.15.41-10.57,3.34,3.43,1.3,7.21-1.3,10.64.03-1.68,1.86-5.59.02-7.2,1.22,4.04,2.8,8.6-.15,12.76,1.34-1.52,1-3.03,1.9-4.41,1.28.37-.46,1.61-.29,1.38-.81-1.33.18-3.6-.02-4.34.54,3.55,2.7,7.56.39,11.28,1.2-.65,1.81-3.59,1.65-4.14,2.43,2.53.97,5.29-.65,7.78.7.03,1.5-3.28,1.26-3.77,2.46,2.39,1.42,5.96-.29,7.64,2.19-.8,1.22-2.42.77-2.59,1.82,1.75.87,6.13.02,5.89,2.96-1.46-.37-2.82-1.88-4.38-1.14,2.43,3.3,7.69,4.06,8.29,7.47-.49-.03-.93-.71-1.38-1.24-4.09-1.08-8.33-3.89-11.89-6.86-1.79-1.49-3.14-3.44-4.99-4.74-3.37-2.39-7.1-3.47-10.1-5.95-5.98-1.32-11.74-5.06-17.85-4.97-.33-1.63-3.45.18-3.74-2.02,1.08-1.41,2.2.12,3.33.3,4.19.65,10.51-1.02,14.07-4.89.86-2.66,2.45-5.26,3.7-7.88.34-.28.58.47.91.27,4.43-4.81,10.33-8.43,14.94-8.36.45.54,1.04,1.09.98,1.58,1.43-.59,3.71.19,4.51-.34-.88.14-1.73-.16-2.53-.97Zm59.56-8.25c-.88-.6-1.85-.21-2.73-.81.13.7,1.9.97,2.73.81Zm-.43,25.35c-1.99.65-4.05,2.03-6.66,3.5,2.2.55,5.67-2.37,7.1-.1-2.75.16-5.58,1.15-8.31,1.12.12-2.27,3.18-2.26,4.85-4.04-2.32.21-4.81,2.22-7.07,1.79,2.76-1.63,6.42-2.14,8.55-3.71-1.35-.58-2.44.95-3.43.81-.26-.82.87-.36,1.21-1.01-2.33.27-4.74,1.54-7.1,2.16.78-2.83,5.66-1.78,8.18-3.74-1.23-.84-2.72,1.15-4,.95.05-1.1,1.54-.69,2.19-1.48-2.68.09-5.5,1.61-8.25,2.43,1.44-2.44,5.79-2.37,8.35-3.54-.39-.47-.79-.94-1.18-1.41-.49.66-.88.15-1.38.81-2.31-1.01-6.33,1.99-9.33,1.96,2.56-2.12,6.55-2.23,9.69-3.98-.46-.42-.95-.49-1.38-1.25-.92.78-2.08,1.92-2.29.54-2.85,1.19-5.71,2.55-8.45,2.6,1.91-2.25,6.75-1.95,9.9-4.15-4.06-2.93-9.64,2.22-13.84,2.3,1.81-2.46,6.56-2.65,9.49-3.81-.02-1.28-1.72-1.53-2.39-2.45-3.29,1.28-6.61,2.85-9.83,3.41,2.17-1.96,5.83-2.51,8.55-3.71-2.43-3.4-7.23,1.5-10.57,1.28,1.94-2.19,5.3-2.21,7.78-3.4-.75-.64-1.56-.71-2.33-1.14-3,1.56-5.96,2.58-8.92,3.67.17,1.85,1.01,4.45,3.1,4.95.44-.71-.61-1.55-.91-2.32,2.49.26,2.54,5.65,6.16,6.16.2-.67-1.38-1.49,0-2.05.96.1,1.73,1.76.54,2.29,4.11,2.73,8.18,5.86,12.26,8.95.45.41-.4.71-.1,1.11,3.11,2.07,7.82,6.22,10.24,2.42-.5-.64-1.11-.04-1.58-1.07,3-.25,3.14-5.01,1.17-6.8Zm-23.04-17.76c-2.93-2.05-6.36,1.45-9.56,2.5.59-2.24,4-2.23,5.76-3.77-2.92-2.18-6.41,2.02-9.59,2.87,1.51,2.85,2.47,4.79,5.25,5.89.19-1.1-.85-2.32-1.18-3.47,3.12-1.48,6.2-2.45,9.32-4.01Zm-2.05-2.05c.02-.38-1.48-1.44-2.16-.94.68.73,1.45.45,2.16.94Zm-3.03-1.58c-.79-.17-1.53-.97-2.39-.4.8.06,1.5,1.32,2.39.4Zm-2.36,1.28c-3.67-2.13-8.08,3.98-11.85,3.04.07,1.37,1.9.95,2.59,2.29.62-.63-.86-1.45-.37-2.09,1.38-1.16,1,1.94,2.12,1.31-.64.52,1.13,3.09,2.29,3.57.33-.53-.86-1.2-1.15-1.78.41-.4.69.64,1.04.84.29-.96-2.29-2.82-1.11-4.21,2.1-.49,4.3-2.13,6.43-2.97Zm-9.19,6.64c-.11-1-1.84-1.59-2.59-2.29.47,1.18,1.42,2.01,2.59,2.29Zm-4.51-1.71c.38-.46-.75-1.06-.98-1.58-.4.29-.79.43-1.14.27-.05.68,1.56.58,2.12,1.31Zm-1.65,1.72c-.53-.27-1.06-.64-1.62-.71-.21.52,1.13,1.14,1.62.71Zm-4.06,24.28c.84,1.01,1.68,2.02,2.53,3.03-.19-.88-1.16-3.01-2.53-3.03Zm-4.61-4.71c-.58-.44-1.08-1.82-1.72-1.65-.78.63,1.17,2.42,1.72,1.65Zm-2.93-2.69c.16-.54-1.23-1.44-1.72-1.65-.8.84,1.23,1.72,1.72,1.65Zm-2.93-2.69c-.55-.77-1.19-.66-1.75-1.28-.17.65,1.18,1.98,1.75,1.28Zm9.2,11.85c.38-.46-.75-1.06-.98-1.58-.54.45-1.08.9-1.61,1.35.79.86,1.73.08,2.59.23Zm-4.88-5.86c-.42-.83-.95-.53-1.38-1.24-1.28,1.06-2.57,2.28-3.8,2.83,1.68,0,3.44-.9,5.18-1.59Zm-19.67-13.73c-.03-.47-.64-1.11-1.18-1.41-.51.33-.72.68-.47,1.08.5.7,1.14-.22,1.65.34Zm-1.14,2.32c-.64-.88-.92-.57-1.18-1.41-.62.5-.43,1.08-.71,1.62.59.31,1.18.7,1.89-.2Zm18.5,22.58c-1.17-.82-2.47-.2-3.67-.71-.17.73,1.28.86,1.72,1.65.68-.66,1.28-.44,1.95-.94Zm-4.69-3.97c-1.27-.37-2.63.2-3.87-.54-.36.79.92.57,1.18,1.41.87,0,1.78-.44,2.69-.88Zm-11.22-12.21c-.75-.65-1.59-.36-2.32-1.14-.62.75-1.23,1.51-2.26,2.22,1.47.26,2.99-.04,4.58-1.08Zm7.38,9.25c-1.1-.19-2.29.54-3.37.07-.35.79.92.56,1.18,1.41.17-.83,1.42-.44,2.19-1.48Zm-11.02-10.33c-.43-.71-.95-.55-1.41-.87-1.03,1.03-2.83,1.98-3.26,3.07,1.4,1.06,3.08-1.07,4.68-2.19Zm-6.9,4.04c-.17-.2-.34-.4-.51-.61-.55.55-1,.06-1.55.61.67.12,1.33.49,2.05,0Z"></path><path class="cls-5" d="m597.26,256.67c-.97-.9-.56-1.17-1.62-2.76-.79.36-.36.84-.67,1.24-.98.1-.79-.86-1.58-1.07-3.09,8.03-9.72,15.98-17.73,22.67-12.61,10.52-26.23,13.18-38,17.66.55,1.33,2.7,1.36,4.07.37-.15,1.94-3.38,1.74-4.04,3.37.7,1.22,1.61.06,2.36.77,9.65-3.93,20.41-7.13,29.82-13.92,5.35-3.86,10.7-8.33,15.24-13.74.25-.26.6.89.57-.13.43.05.58-.35.2-.17,4.38-4.71,9.2-9.94,11.37-14.28Z"></path><path class="cls-5" d="m457.36,300.78c2.59,2.85,3.39,6.36,6.37,10.1,1.23-1.41-.54-2.88-1.11-4.21-1.06-2.44-1.53-5.91-3.6-7.61-.52,1.65.89,2.95,1.79,5.02-1.35-.55-2.01-3.62-3.44-3.3Z"></path><path class="cls-5" d="m468.2,248.93c-1.78,3.72-7.03,5.39-10.2,5.43-1.19.81-2.42,2.01-3.43.81,3.91-4.91,10.22-7.93,14.47-11.39.86.74,1.77,1.06,2.79.06.62.74,1.23,1.48,1.85,2.22-1.75-.01-3.37,2.46-5.49,2.87Zm2.66-2.56c.11-.71-1.49.07-2.12.74.63.56,1.46-.98,2.12-.74Zm-4.21,3.17c-1.8.62-3.72,2.56-5.49,2.87.81.89,4.44-1.32,5.49-2.87Z"></path><path class="cls-5" d="m493.76,311.16c1.33-.87,1.42-.36,1.65-1.72,12.54,2.47,26.52-.68,39.72-7.8,1.38-.74,2.56-1.95,4.28-1.85.73-.48,1.49-1.35,2.09-.37-3.8,6.04-13.28,7.9-18.51,10.65-15.58,3.7-31.63,12.63-46.83,12.01-8.16-1.31-16.25-3.4-24.28-6.11-5.75-3.94-13.62-10.2-15.09-16.86-1.65-7.49-1.1-15.8,2.01-22.22,1.38.61,1.99-1.18,3-2.16.98.04,1.6.95,2.12,1.31.41-.45.8-.61,1.18-.64,11.22-.15,22.19,2.35,33,6.72.39.35.06.63.1.94,1.89.82,4.21,1.02,4.58,3.03,3.14-.56,8.38,4.25,11.11,1.01,2.15-2.55-3.98-9.43-7.28-10.37.91,1.39-2.6,2.38-2.76,3.67,1.86.12,3.81-.88,5.56.5-.02.74-.23,1.47-.57,2.19,1.36.39,5.34.58,4.21,2.99-1.21-2.07-3.74-1.01-5.56-2.56-.62-.87,1.1-1.52.4-2.39-1.87.05-3.8.73-5.59-.13-.2-1.39,2.36-2.53,2.96-3.84-2.36.58-4.82,2.35-7.07,1.79.26-1.35,2.73-2.49,3.33-3.81-2.39.33-5.02,3.2-7.3,2.33,2.71-1.71,5.33-2.5,7.98-3.57-.27-.42-.6-.25-.88-.64.28-.69,1.3.27.98-.47-.22-.27-.45-.54-.67-.81-.83,2.07-3.43,1.73-4.21,3.17-.83-1.01,2.16-1.67,1.92-2.63-3.29,1.29-6.7,3.9-9.9,4.15,3.62-2.21,7.18-3.72,10.77-5.56-1.98-1.74-4.29.24-6.13,1.69-.66-.87,1.23-1.51,1.14-2.32-2.5,1.47-5.04,3.45-7.41,3.44,1.74-1.78,4.95-2.61,7.3-4.38-.83-.45-1.63-1.2-2.53-.98.22.77-.93,1.41-1.68,2.09-1.28-1.73-4.58,2.96-6.53,2.02,1.88-1.62,5.25-3.37,7.71-4.72-.78-.3-1.56-.63-2.36-.77-2.26,2.34-5.54,3.54-8.25,4.48,2.19-2.14,5.24-2.87,6.83-5.35-.8-.08-1.55-.73-2.36-.77-2.07,2.22-5.46,5.11-8.31,5.22,1.7-1.79,5.56-3.67,6.87-5.73-.46-.41-.93-.7-1.45-.5-1.31,2.13-5.93,5.44-8.18,5.79-.05-.95,1.64-.59,1.08-1.58-.27.18-.53.34-.74-.07.88-1.08,1.74-1.73,3.26-3.06-.29-.22-.61-.15-.88-.64.37-.62,1.36-1.34,2.15-1.11.63,1.55-2.09,2.8-2.25,4.28,1.99-1.22,2.68-2.26,4.65-3.88-2.01-.52-4-1.23-6.09-.74-.47,3.31-2.75,8.42-7.1,8.32,1.03-1.15,1.49-2.35,1.81-3.57-.61,1.13-2.29,2.16-3.46,3.23-.24-1.01-.55-.38-1.21-1.04.77-.86,2.5-1.64,2.66-2.56-1.91.51-3.98,2.75-5.79,2.09,2.47-1.68,5.65-2.49,7.5-4.55,1.96-2.16,1.25-4.83,2.49-6.87.81-.59,1.32.71,1.62.7.81-.61-.24-1.39.74-1.99.81-.16.34,1.12,1.04.84,4.8-.35,11.38,1.73,17.31,4.74,9.92,5.04,16.88,10.29,24.69,20.15-1.13,1.02,0,2.24-.67,3.3-1.74.03-2.12,1.84-3.6,2.66-3.22,1.78-13.76-2.21-16.97-4.34-2.4-1.59-7.1-2.87-10.84-3.97-5.12-1.5-9.6-1.92-13.54-1.04-2.83-2.47-5.98-1.36-9.03-1.37-.8-.45.52-.7-.27-1.15-.55.63-1.16.22-1.21,1.01-.81-.76.46-1.33.37-2.02-1.09.24-1.54,1.91-2.86,2.73-.77,2.64-.73,4.34-.63,7.04.13,3.88-.18,9.18.75,12.39,2.96,10.22,13.14,14.76,20.34,16.59,11.47,2.91,25.69,3.42,36.5-1,.21-.35.26-.72.47-1.08,1.12.06,2.27-.26,3.4-.44-2.2-1.14-4.62.21-6.8-1.17Zm-7.49-34.84c.14-1.06-1.38-1.11-1.85-2.22-.67,1.13-3.07,2.49-4.85,4.04,2.21-.32,4.55-2.11,6.7-1.82Zm-24.15-13.76c1.13,1.33,3.98,1.41,5.76,2.39-.46-.74-4.03-2.01-5.76-2.39Zm-7.14-1.58c-1-.2-1.07,1.26-1.28,1.75.44.15,1.1-1.26,1.28-1.75Zm8.66,17.77c-4.58-1.71-10.84-2.59-16.3-1.47,5.48,0,10.92.31,16.3,1.47Zm-25.21,6.31c-.96,1.97-1.17,5.62-.2,8.38.13-2.79.17-5.59.2-8.38Zm17.02,30.66c-.14-.3-3.64-1.82-3.27-1.04,1.1.19,2.17.78,3.27,1.04Z"></path><path class="cls-5" d="m445.03,284.36c-.31-.67-.74-.07-1.08-.47-.05,3.99.76,7.74,1.18,11.68.25,2.29-.16,5.13,1.96,7.27.84-.92.67-1.93.27-2.96,1.85,1.23,1.99,3.91,3.77,5.76,1.4-2.18-.5-4.65-.68-6.97,4.04,1.2,4.4,8.29,8.02,10.43,1.09-3.01-2.52-6.45-2.87-9.59-.43-.84.9-1.52-.74-2.12-1.25,2.44,1.19,5.21,2.09,7.84-2.19-1.86-4.07-7.85-7.48-8.14-.7,1.3.15,2.75.74,4.17-6.02-5.27-4.67-11.5-5.19-16.9Z"></path></g><g><path class="cls-4" d="m310.03,327.63c-.88-.86-1.88-1.62-3.01-2.26s-2.23-1.12-3.3-1.44c-.5-.13-1.02-.25-1.56-.36-.54-.11-1.1-.2-1.68-.28-.58-.07-1.16-.13-1.74-.17-.58-.04-1.13-.05-1.64-.04-.98.05-1.74.11-2.3.19s-1.15.21-1.76.38c-.62.18-1.18.41-1.68.7s-.93.65-1.27,1.08c-.34.43-.52.96-.52,1.58,0,.42.12.81.36,1.19.24.38.54.75.91,1.12s.77.74,1.2,1.12c.43.38.85.77,1.25,1.18.4.41.74.84,1.03,1.28s.47.93.55,1.44c.16.78.3,1.44.41,1.97.11.53.26,1.1.44,1.7.18.61.39,1.16.62,1.67.23.5.49.92.77,1.25.28.33.58.48.9.47.45-.03.77-.1.96-.2.19-.1.31-.32.36-.64.46.14,1.03.25,1.7.34.67.08,1.39.11,2.16.1.51,0,1.1-.07,1.76-.2.66-.14,1.34-.33,2.04-.59s1.38-.58,2.06-.98c.68-.4,1.29-.87,1.82-1.42.54-.54.98-1.16,1.33-1.86.35-.7.55-1.48.6-2.34.05-1.09-.18-2.14-.7-3.16-.51-1.02-1.21-1.96-2.09-2.82Zm-14.88-.91c-.18.37-.32.78-.43,1.25-.11.46-.19.94-.23,1.42-.04.48-.04.89-.01,1.22-.11-.1-.27-.28-.47-.54-.2-.26-.4-.55-.61-.86-.21-.31-.39-.62-.54-.94-.15-.31-.23-.57-.23-.78,0-.3.16-.55.47-.74.31-.19.66-.35,1.04-.47.38-.12.93-.22,1.63-.3-.24.13-.45.38-.62.74Zm13.87,8.74c-.51.8-1.15,1.5-1.92,2.1-.77.6-1.59,1.07-2.47,1.42-.88.34-1.69.52-2.42.52-.42,0-.78-.07-1.09-.2s-.57-.3-.78-.48c-.21-.18-.37-.39-.48-.61-.11-.22-.19-.43-.24-.62-.11-.5-.05-1.01.19-1.54.24-.53.53-1.03.86-1.51.34-.48.64-.89.92-1.22.28-.34.47-.62.56-.86.06-.14.09-.34.08-.58,0-.24-.13-.36-.37-.36-.29,0-.65.13-1.09.38-.44.26-.88.55-1.31.88s-.82.64-1.16.95c-.34.3-.56.52-.66.65-.06-.24-.12-.54-.16-.9-.04-.36-.07-.74-.1-1.13-.02-.39-.04-.8-.04-1.21s0-.81.02-1.18c.02-.46.06-.9.14-1.31s.16-.79.24-1.15c.08-.36.14-.68.17-.95.03-.27.02-.49-.05-.65,1.81,0,3.27.14,4.38.42,1.11.28,2.09.6,2.94.96s1.61.81,2.29,1.34c.68.54,1.23,1.16,1.66,1.86.42.7.64,1.51.64,2.42s-.26,1.77-.77,2.57Z"></path><path class="cls-4" d="m347.52,336.94c-.06-.08-.15-.12-.26-.12-.38.18-.69.34-.92.48-.23.14-.52.27-.85.38-.19.08-.34-.06-.46-.43-.11-.37-.2-.82-.28-1.37-.07-.54-.14-1.1-.22-1.67-.07-.57-.16-1.01-.28-1.33-.11-.35-.31-.62-.6-.82-.29-.19-.54-.29-.74-.29-.29,0-.59.15-.91.46s-.65.68-1,1.12c-.34.44-.68.92-1.02,1.44-.34.52-.65,1-.95,1.45-.3.45-.57.82-.82,1.13-.25.3-.44.46-.59.46s-.23-.18-.26-.55c-.02-.27,0-.67.06-1.2.06-.53.12-1.07.19-1.63.07-.56.14-1.08.22-1.55.07-.47.12-.79.13-.97.02-.14-.01-.3-.08-.48-.07-.18-.18-.34-.31-.48-.14-.14-.31-.26-.53-.36-.21-.1-.46-.14-.73-.14s-.56.11-.88.32c-.32.22-.64.48-.98.8-.33.32-.67.67-.99,1.04-.33.38-.63.73-.9,1.06-.27.33-.51.6-.71.8s-.33.31-.4.31c-.08-.05-.08-.25-.01-.6.07-.35.14-.74.22-1.15.07-.42.11-.66.11-.72,0-.19-.06-.37-.17-.54s-.25-.31-.42-.43-.36-.21-.56-.28c-.21-.06-.41-.08-.6-.05-.27.05-.51.29-.72.72-.19.4-.36,1.07-.52,2-.06.08-.12.17-.2.29-.21.34-.4.64-.58.88-.18.24-.36.49-.56.76-.2.26-.45.57-.74.91-.3.34-.59.66-.89.95s-.58.48-.85.58c-.16.03-.27-.07-.32-.31-.06-.24-.08-.58-.06-1.01.02-.4.04-.78.08-1.15.04-.37.09-.75.16-1.14.06-.39.12-.74.17-1.04.05-.3.07-.48.07-.53,0-.22-.08-.43-.25-.61s-.37-.34-.61-.46c-.24-.12-.49-.2-.76-.25-.26-.05-.5-.04-.71.02-.1.03-.25.22-.47.55-.22.34-.47.74-.76,1.22-.29.48-.62,1-.98,1.56-.37.56-.76,1.08-1.18,1.56-.42.48-.84.89-1.28,1.22s-.88.52-1.33.55c-.19-.05-.32-.25-.4-.6-.07-.35-.06-.82.02-1.42.09-.59.24-1.23.44-1.91.21-.68.37-1.2.49-1.55.12-.35.19-.57.2-.65.03-.14-.01-.29-.13-.46s-.28-.3-.47-.42c-.19-.12-.4-.22-.64-.29-.23-.07-.44-.11-.61-.11-.27.02-.5.16-.7.44-.19.28-.38.99-.55,2.14-.18,1.14-.24,2.09-.19,2.84.05.75.13,1.34.25,1.76.12.42.3.8.54,1.12.24.32.56.63.97.92.41.3.94.43,1.6.4.37-.02.75-.1,1.15-.26s.79-.37,1.18-.64c.38-.26.75-.58,1.1-.94s.67-.74.96-1.14c.13,1.1.45,1.95.97,2.54s1.19.9,2,.94c.61.06,1.23-.17,1.86-.7.56-.47,1.03-1,1.44-1.57,0,.23-.02.45-.02.68,0,.58.19.98.58,1.2.38.22.9.34,1.56.34.16,0,.36-.18.61-.55.25-.37.51-.83.79-1.38.28-.55.57-1.15.88-1.8.3-.65.6-1.25.88-1.8.28-.55.54-1.01.78-1.38.24-.37.44-.56.6-.58.1.02.1.23,0,.65-.05.22-.09.48-.13.78-.04.3-.08.62-.13.97s-.07.7-.07,1.03c0,.42.06.86.17,1.33.11.47.28.91.5,1.31.22.4.51.73.86.98.35.25.76.38,1.24.36.4,0,.78-.15,1.14-.46.36-.3.7-.67,1.02-1.1.32-.43.62-.9.89-1.39.27-.5.51-.95.72-1.37.21-.42.38-.75.5-1,.13-.25.22-.34.26-.28.06.08.12.28.16.6.04.32.09.69.16,1.1.06.42.14.85.24,1.31s.23.86.41,1.22c.18.36.4.65.68.86.28.22.63.28,1.04.2.21-.03.49-.14.84-.34.35-.19.7-.43,1.04-.71.34-.28.64-.59.89-.92s.37-.67.37-1.01v-.16c0-.09-.01-.18-.04-.29-.02-.1-.07-.2-.13-.28Z"></path><path class="cls-4" d="m375.8,335.66c-.04-.17-.1-.27-.19-.31-.09-.04-.16-.06-.23-.06-.14.05-.28.17-.41.37s-.27.44-.43.71-.39.51-.68.72c-.3.21-.52.32-.66.34-.4.05-.7-.08-.9-.38s-.35-.69-.46-1.15c-.1-.46-.2-.97-.3-1.51s-.24-1.06-.43-1.55c-.19-.49-.47-.89-.83-1.21-.36-.32-.87-.48-1.52-.48-.3,0-.62.23-.95.7-.33.46-.68,1-1.06,1.61-.38.61-.83,1.24-1.36,1.9-.53.66-.94,1.02-1.25,1.08-.16.02-.22-.24-.17-.77.02-.35.09-.9.23-1.66s.2-1.2.2-1.34c0-.19-.06-.38-.18-.56s-.27-.35-.44-.5-.36-.28-.56-.37-.37-.14-.52-.14c-.34,0-.6.19-.8.56-.2.38-.38.9-.53,1.56-.09.41-.15.8-.18,1.18,0,0-.01,0-.02,0-.06.03-.19.21-.37.54-.18.33-.42.7-.7,1.13-.28.42-.59.83-.92,1.22-.34.39-.7.64-1.08.73-.13,0-.23-.06-.31-.18-.08-.12-.14-.32-.18-.61s-.08-.67-.11-1.15c0-.14,0-.39-.02-.73-.02-.34-.09-.66-.22-.96-.13-.3-.32-.55-.56-.76-.25-.21-.59-.3-1.02-.29-.18.02-.39.13-.64.35s-.5.48-.77.79c-.26.31-.54.66-.84,1.04-.3.38-.6.74-.9,1.08s-.67.71-1.09,1.12c-.42.41-.77.63-1.04.66-.22.02-.34-.1-.36-.34,0-.48.19-1.11.56-1.9s.78-1.48,1.21-2.08c.43-.6.85-1.09,1.25-1.48.4-.38.79-.6,1.18-.65.21-.02.32.02.35.1.02.08.02.18-.01.29-.03.11-.05.22-.05.34.02.13.09.22.22.26.14.06.29.09.43.08.14,0,.26-.02.36-.04.22-.05.44-.13.66-.25s.4-.28.54-.47c.14-.19.25-.41.31-.65.06-.24.08-.5.05-.77-.05-.26-.17-.49-.35-.7s-.4-.38-.66-.5-.52-.22-.79-.26c-.27-.05-.52-.06-.74-.02-.45.08-.94.28-1.48.59-.54.31-1.06.71-1.58,1.19-.52.48-1.01,1.01-1.48,1.58-.46.58-.86,1.18-1.2,1.8s-.59,1.25-.76,1.87-.21,1.19-.13,1.7c.06.43.2.82.42,1.18.22.35.48.65.78.89s.66.41,1.07.52c.41.1.85.12,1.33.06.4-.06.8-.22,1.19-.48.39-.25.74-.52,1.06-.8.31-.28.68-.64,1.09-1.07.29.54.7,1.06,1.25,1.54.54.48.97.78,1.27.91.3.13.6.22.89.26.29.05.54.06.77.02.61-.08,1.12-.35,1.54-.82s.76-1,1.02-1.6c.04-.08.06-.16.09-.25.19.52.43,1,.76,1.41.37.46.87.71,1.51.74.4.02.77-.16,1.12-.54.34-.38.66-.85.94-1.42.28-.57.54-1.18.77-1.85.23-.66.44-1.27.62-1.82.18-.55.34-.99.48-1.31s.24-.46.32-.43c.11,0,.23.4.35,1.21.12.81.27,1.53.44,2.17.18.64.43,1.24.77,1.8.34.56.78,1.03,1.34,1.4.56.38,1.26.56,2.09.56.22-.03.48-.17.78-.42.3-.25.57-.55.82-.91s.47-.75.67-1.18.32-.84.35-1.24c.03-.24.05-.42.05-.54s-.02-.26-.06-.43Z"></path></g><g><path class="cls-1" d="m246.85,182.54c-2.6-3.04-5.6-5.78-9.02-8.23-3.42-2.44-6.78-4.39-10.1-5.83-1.54-.6-3.16-1.19-4.86-1.77-1.7-.58-3.45-1.11-5.27-1.59-1.81-.48-3.64-.91-5.49-1.3-1.85-.39-3.59-.68-5.24-.87-3.14-.31-5.62-.48-7.45-.5-1.83-.02-3.77.08-5.83.32-2.06.24-3.97.68-5.74,1.32-1.77.64-3.32,1.55-4.66,2.72-1.34,1.18-2.19,2.75-2.53,4.72-.23,1.32-.06,2.64.51,3.96.57,1.32,1.36,2.67,2.36,4.04,1,1.37,2.11,2.76,3.33,4.19,1.22,1.43,2.38,2.89,3.48,4.39,1.11,1.5,2.03,3.04,2.75,4.61.73,1.57,1.1,3.19,1.12,4.85.14,2.57.28,4.72.4,6.45.12,1.73.34,3.61.66,5.63.32,2.02.76,3.89,1.31,5.61.54,1.72,1.22,3.17,2.02,4.35.8,1.18,1.75,1.82,2.85,1.93,1.54.12,2.66.05,3.36-.18.7-.24,1.2-.86,1.51-1.85,1.51.68,3.4,1.3,5.65,1.85,2.25.56,4.69.97,7.31,1.25,1.74.22,3.77.24,6.09.08,2.31-.17,4.7-.52,7.16-1.08,2.46-.55,4.91-1.35,7.35-2.39,2.44-1.04,4.65-2.34,6.63-3.9,1.98-1.56,3.66-3.4,5.05-5.52,1.39-2.12,2.28-4.55,2.69-7.29.47-3.46,0-6.89-1.39-10.29-1.39-3.4-3.39-6.62-5.98-9.66Zm-47.96-9.03c-.75,1.08-1.42,2.33-2.01,3.74-.59,1.42-1.07,2.87-1.44,4.37-.37,1.5-.58,2.79-.65,3.87-.32-.36-.74-1.01-1.26-1.95-.52-.94-1.04-1.96-1.56-3.06-.52-1.1-.95-2.18-1.28-3.25-.33-1.07-.44-1.93-.34-2.59.16-.96.79-1.66,1.9-2.11,1.11-.45,2.31-.76,3.61-.94,1.3-.18,3.1-.23,5.41-.14-.84.29-1.63.97-2.38,2.05Zm45.48,25.73c-.29,2.91-1.42,5.56-3.4,7.94-1.98,2.38-4.37,4.38-7.17,6.01-2.8,1.63-5.76,2.81-8.87,3.55-3.11.74-5.92.95-8.41.63-1.41-.18-2.61-.56-3.61-1.13-1-.57-1.81-1.2-2.43-1.88-.62-.68-1.08-1.4-1.36-2.17-.28-.76-.46-1.46-.54-2.09-.16-1.63.28-3.23,1.31-4.79,1.03-1.57,2.21-3.04,3.53-4.42,1.32-1.38,2.52-2.54,3.58-3.49,1.07-.95,1.81-1.79,2.22-2.51.27-.43.44-1.03.51-1.8.07-.77-.29-1.2-1.08-1.3-.95-.12-2.2.13-3.76.75-1.56.62-3.13,1.35-4.7,2.2-1.57.85-3,1.67-4.28,2.47-1.28.8-2.11,1.38-2.49,1.74-.1-.79-.14-1.77-.1-2.93.03-1.16.1-2.37.2-3.63.1-1.26.25-2.54.44-3.87.19-1.32.4-2.56.62-3.72.27-1.47.62-2.83,1.07-4.09.45-1.26.88-2.44,1.31-3.54.42-1.11.75-2.08.98-2.93.23-.85.27-1.54.14-2.08,5.83.84,10.49,1.91,13.98,3.26,3.49,1.35,6.54,2.76,9.16,4.23,2.62,1.47,4.95,3.18,6.99,5.13,2.04,1.95,3.64,4.12,4.8,6.51,1.16,2.39,1.61,5.04,1.32,7.95Z"></path><path class="cls-1" d="m275.23,176.06c-.62-.4-1.24-.63-1.86-.67-.47-.03-1.22.21-2.28.72-1.05.51-2.05,1.16-3,1.94-.95.78-1.72,1.62-2.31,2.52-.6.91-.64,1.76-.13,2.58.18.38.53.76,1.05,1.16.52.4,1.03.75,1.54,1.05.5.3,1.01.54,1.52.73.51.19.9.25,1.17.16.42.03.99-.36,1.7-1.19.72-.82,1.4-1.75,2.05-2.79.65-1.04,1.17-2.04,1.58-3.02.4-.98.54-1.6.4-1.86-.33-.49-.81-.93-1.43-1.33Z"></path><path class="cls-1" d="m311.74,207.91c-.26-.29-.63-.44-1.11-.46-.27.04-.79.39-1.56,1.03-.77.64-1.8,1.48-3.1,2.52-1.3,1.03-2.75,2.1-4.36,3.19-1.61,1.09-3.27,2.12-4.99,3.07-1.72.95-3.4,1.71-5.03,2.27-1.63.56-3.13.78-4.48.66-.96-.31-1.67-.63-2.11-.96-.44-.33-.81-.74-1.11-1.22-.3-.48-.43-.98-.4-1.49,3.01-1.47,5.72-3.16,8.14-5.04,1.06-.82,2.09-1.71,3.07-2.67.98-.96,1.89-1.98,2.71-3.08.82-1.09,1.51-2.26,2.07-3.5.56-1.24.91-2.52,1.07-3.85.19-2.05-.23-3.59-1.24-4.64-1.02-1.04-2.68-1.67-4.99-1.88-2.47-.22-4.85.21-7.16,1.29-2.31,1.08-4.36,2.58-6.15,4.5-1.79,1.92-3.25,4.1-4.38,6.55-.76,1.66-1.29,3.37-1.62,5.12-.04.05-.06.08-.1.14-.65.91-1.45,1.91-2.39,3-.94,1.09-1.99,2.11-3.14,3.06-1.16.95-2.31,1.53-3.47,1.75-.43-.03-.75-.33-.95-.88-.2-.56-.34-1.27-.4-2.16-.07-.88-.03-1.91.12-3.08.14-1.17.46-2.73.93-4.68.47-1.94,1.14-4.33,1.99-7.15.26-.65.26-1.34,0-2.08-.26-.74-.69-1.42-1.28-2.03-.59-.61-1.3-1.12-2.11-1.52-.82-.4-1.62-.61-2.42-.62-.64,0-1.24.44-1.82,1.32-.58.88-1.14,2.11-1.67,3.68-.54,1.58-1.04,3.35-1.5,5.32-.47,1.97-.76,4.26-.88,6.88-.2,4.21.52,7.75,2.19,10.62.53.87,1.2,1.65,2.03,2.33.82.69,1.68,1.26,2.58,1.71.9.46,1.79.8,2.68,1.02.89.22,1.69.31,2.41.26,1.82-.07,3.44-.71,4.87-1.89,1.26-1.05,2.33-2.28,3.24-3.66.47,1.27,1.07,2.47,1.81,3.6.97,1.14,2.24,2.22,3.83,3.24,1.59,1.02,3.61,1.67,6.07,1.96,2.08.21,4.48-.21,7.18-1.27,2.71-1.06,5.3-2.5,7.77-4.31,2.47-1.81,4.63-3.87,6.49-6.18,1.86-2.3,3.02-4.58,3.51-6.83.02-.56.03-.95.03-1.15,0-.2-.07-.49-.22-.85-.15-.36-.36-.69-.62-.98Zm-25.57-4.14c1.03-1.61,2.17-3.11,3.44-4.48,1.27-1.37,2.56-2.49,3.87-3.35,1.31-.86,2.42-1.27,3.31-1.23.42.02.53.61.32,1.79-.25.91-.94,1.99-2.06,3.22-1.12,1.23-2.37,2.45-3.73,3.64-1.37,1.19-2.74,2.26-4.1,3.22-1.37.95-2.33,1.54-2.88,1.77.19-1.43.8-2.95,1.82-4.56Z"></path><path class="cls-1" d="m386.84,185.74c-3.03-2.61-6.41-4.86-10.16-6.76-3.75-1.89-7.36-3.3-10.85-4.22-1.61-.36-3.3-.7-5.07-1.01-1.76-.31-3.58-.57-5.44-.76-1.86-.19-3.73-.34-5.61-.45-1.88-.1-3.65-.12-5.3-.06-3.14.18-5.62.39-7.42.64-1.81.26-3.7.66-5.69,1.21-1.99.55-3.81,1.28-5.45,2.18-1.64.9-3.03,2.04-4.18,3.4-1.14,1.37-1.74,3.05-1.77,5.05-.03,1.34.34,2.61,1.11,3.83.76,1.22,1.74,2.43,2.94,3.63,1.19,1.2,2.5,2.41,3.91,3.63,1.41,1.22,2.78,2.49,4.1,3.81,1.32,1.32,2.46,2.7,3.41,4.13.96,1.44,1.57,2.98,1.84,4.62.53,2.52.99,4.62,1.37,6.31.38,1.69.88,3.52,1.51,5.46.63,1.95,1.34,3.73,2.14,5.34.8,1.61,1.68,2.94,2.65,3.99.97,1.04,2,1.54,3.1,1.47,1.53-.12,2.63-.35,3.28-.7.65-.34,1.05-1.03,1.2-2.06,1.59.44,3.54.76,5.85.97,2.31.21,4.78.25,7.4.12,1.75-.05,3.76-.33,6.02-.85,2.26-.52,4.56-1.24,6.9-2.16,2.34-.92,4.64-2.08,6.89-3.48,2.25-1.4,4.23-3.02,5.95-4.87,1.71-1.84,3.09-3.92,4.14-6.22,1.05-2.3,1.56-4.84,1.54-7.62-.06-3.49-1.05-6.81-2.94-9.96-1.89-3.15-4.35-6.02-7.38-8.64Zm-48.68-1.61c-.57,1.18-1.05,2.52-1.41,4-.37,1.49-.62,3-.75,4.54-.14,1.54-.15,2.85-.05,3.93-.37-.31-.88-.89-1.54-1.74-.66-.85-1.33-1.78-2-2.78-.68-1.01-1.26-2.01-1.75-3.01-.49-1-.73-1.84-.73-2.51,0-.97.52-1.77,1.55-2.38,1.02-.61,2.16-1.1,3.41-1.48,1.25-.38,3.02-.7,5.31-.96-.78.41-1.46,1.21-2.03,2.39Zm46.64,26.85c-1.59,2.65-3.64,5-6.16,7.03-2.52,2.04-5.26,3.66-8.21,4.86-2.96,1.21-5.7,1.84-8.2,1.9-1.42.04-2.66-.15-3.74-.57-1.07-.41-1.97-.91-2.69-1.49-.72-.58-1.27-1.22-1.67-1.93-.39-.71-.67-1.37-.85-1.99-.41-1.58-.21-3.23.57-4.94.78-1.71,1.72-3.34,2.81-4.9,1.1-1.56,2.1-2.9,3-3.99.91-1.1,1.51-2.04,1.81-2.82.2-.47.28-1.08.23-1.85-.05-.77-.47-1.14-1.26-1.12-.95.02-2.15.46-3.6,1.31-1.44.85-2.88,1.81-4.3,2.89-1.42,1.08-2.7,2.11-3.84,3.09-1.14.99-1.87,1.69-2.19,2.1-.22-.77-.4-1.73-.55-2.88-.14-1.15-.26-2.36-.35-3.62-.09-1.26-.14-2.55-.15-3.89-.01-1.33,0-2.59.05-3.77.04-1.49.19-2.89.44-4.2.25-1.31.5-2.54.75-3.7.25-1.16.42-2.17.52-3.05.09-.87.04-1.57-.18-2.08,5.88-.06,10.63.29,14.28,1.09,3.64.8,6.87,1.73,9.69,2.78,2.81,1.05,5.37,2.39,7.68,4,2.31,1.62,4.22,3.52,5.73,5.7,1.51,2.19,2.36,4.74,2.51,7.66.15,2.92-.55,5.71-2.14,8.36Z"></path><path class="cls-1" d="m435,195.12c-.46-.78-.94-1.36-1.46-1.74-.52-.38-1.12-.67-1.81-.86-.69-.19-1.49-.39-2.42-.61-.93-.22-2.11-.57-3.53-1.05-1.48-.48-2.8-.75-3.98-.83-1.17-.07-2.36.02-3.55.28-1.14.25-2.16.7-3.07,1.35-.9.64-1.69,1.34-2.37,2.09-.68.75-1.29,1.51-1.81,2.27-.53.76-.96,1.34-1.3,1.72-.85-.71-1.84-1.08-2.96-1.13-1.12-.04-1.91.05-2.37.29-.57.25-.97.65-1.19,1.21-.23.56-.37,1.17-.43,1.84-.06.67-.07,1.34-.02,2.01.05.67.08,1.18.11,1.54.02.31.1,1.07.24,2.3.14,1.23.36,2.66.67,4.31.3,1.65.71,3.41,1.23,5.28.51,1.87,1.14,3.61,1.89,5.23.74,1.62,1.61,2.98,2.6,4.09.99,1.11,2.15,1.74,3.48,1.89.55.06,1.16.05,1.81-.03.65-.08,1.26-.19,1.83-.34.56-.15,1.01-.37,1.35-.65.33-.28.46-.6.37-.96-.4-2.18-.81-4.38-1.21-6.58-.4-2.21-.62-4.47-.65-6.78-.03-2.32.18-4.68.62-7.08.44-2.41,1.19-4.89,2.25-7.46.55-1.03,1.15-2.03,1.81-3.02.65-.99,1.33-1.46,2.02-1.42.91.02,1.57.25,1.98.7.41.45.79,1.16,1.12,2.14.33.97.66,2,.98,3.08.32,1.08.72,2.06,1.21,2.94.49.88,1.28,1.59,2.39,2.12,1.1.53,2.33.76,3.67.67.53-.06.97-.36,1.32-.91.35-.55.56-1.26.63-2.12.07-.86-.02-1.79-.26-2.8-.24-1.01-.63-2-1.16-2.97Z"></path><path class="cls-1" d="m499.75,199.9c-.03-.15-.15-.39-.37-.72-.22-.32-.51-.62-.85-.87-.35-.25-.76-.42-1.24-.49-.48-.08-.99.04-1.54.34-.1.07-.36.62-.79,1.66-.43,1.04-.97,2.2-1.64,3.48-.66,1.28-1.45,2.52-2.36,3.71-.91,1.19-1.9,2.03-2.98,2.51-.43.07-.81-.14-1.14-.64-.33-.49-.63-1.16-.9-2-.27-.84-.47-1.85-.6-3.02-.13-1.17-.19-2.76-.18-4.77.01-2,.11-4.47.28-7.41.1-.69-.06-1.37-.49-2.03-.43-.66-1-1.22-1.72-1.67-.72-.46-1.53-.78-2.42-.98-.89-.2-1.73-.21-2.5-.04-.62.15-1.12.72-1.48,1.71-.36.99-.62,2.31-.77,3.97-.14,1.52-.22,3.2-.23,5.03-.27.16-.68.55-1.24,1.22-.65.77-1.52,1.78-2.62,3.03-1.1,1.25-2.35,2.55-3.74,3.91-1.39,1.36-2.86,2.66-4.39,3.9-1.53,1.24-3.05,2.28-4.56,3.13-1.51.84-2.95,1.32-4.3,1.44-1-.13-1.75-.33-2.25-.58-.5-.25-.93-.58-1.31-1-.38-.42-.6-.88-.66-1.39,2.71-1.98,5.09-4.12,7.13-6.4.9-1,1.76-2.05,2.56-3.17.8-1.12,1.51-2.29,2.13-3.51.62-1.22,1.09-2.49,1.43-3.81.33-1.31.46-2.64.38-3.98-.18-2.05-.86-3.5-2.04-4.35-1.19-.85-2.93-1.17-5.25-.97-2.48.22-4.75,1.06-6.83,2.53-2.08,1.47-3.84,3.31-5.27,5.52-1.43,2.21-2.48,4.61-3.16,7.22-.68,2.61-.87,5.24-.58,7.89.58,4.74,2.29,8.63,5.17,11.66,1.15.95,2.6,1.79,4.35,2.52,1.74.72,3.85,1.01,6.33.86,2.09-.16,4.38-1,6.86-2.52,2.48-1.52,4.78-3.39,6.9-5.61,2.11-2.22,3.89-4.63,5.31-7.23.26-.48.5-.95.71-1.42.85,3.43,2.27,6.2,4.29,8.3.72.72,1.56,1.32,2.52,1.79.96.48,1.93.83,2.92,1.07.98.24,1.93.36,2.85.36.92,0,1.73-.1,2.41-.31,1.76-.5,3.2-1.49,4.31-2.98,1.11-1.49,1.96-3.13,2.54-4.92.58-1.79.93-3.6,1.06-5.42.12-1.82.11-3.34-.05-4.56Zm-48.57-1.63c.73-1.77,1.59-3.44,2.6-5.02,1.01-1.57,2.08-2.9,3.23-3.98,1.14-1.08,2.16-1.68,3.05-1.8.42-.06.63.51.63,1.7-.09.94-.57,2.12-1.46,3.53-.89,1.41-1.9,2.83-3.04,4.24-1.14,1.42-2.3,2.71-3.48,3.89-1.18,1.18-2.02,1.93-2.52,2.25-.07-1.44.27-3.04.99-4.81Z"></path><path class="cls-1" d="m481.09,177.25c.6.27,1.18.49,1.74.66.56.17,1.11.29,1.66.36.55.07.94.03,1.18-.11.42-.07.88-.58,1.39-1.55.51-.97.96-2.03,1.35-3.19.39-1.16.67-2.26.84-3.3.17-1.04.15-1.68-.05-1.91-.44-.39-1.01-.71-1.71-.96-.7-.25-1.36-.32-1.98-.22-.46.08-1.15.49-2.06,1.23-.91.75-1.73,1.61-2.48,2.58-.75.98-1.3,1.97-1.67,2.99-.37,1.02-.22,1.86.48,2.54.26.32.7.62,1.3.89Z"></path><path class="cls-1" d="m260.18,161.07c1.43-.2,3.01-.48,4.74-.83,1.74-.35,3.49-.77,5.26-1.25,1.77-.48,3.49-1.05,5.16-1.7,1.67-.65,3.17-1.37,4.51-2.16,1.34-.78,2.44-1.62,3.29-2.5.85-.88,1.32-1.83,1.41-2.84.13-1.44-.14-2.69-.81-3.75-.67-1.05-1.57-1.95-2.69-2.69-1.12-.74-2.37-1.35-3.74-1.83-1.38-.48-2.74-.88-4.09-1.18-1.35-.3-2.56-.52-3.63-.65-1.07-.13-1.86-.21-2.37-.25.99-.43,1.91-.93,2.76-1.5.85-.57,1.58-1.18,2.2-1.84.62-.66,1.11-1.33,1.49-2.01.38-.68.61-1.39.69-2.11.12-1.06-.05-1.99-.5-2.77-.46-.78-1.11-1.45-1.97-2-.86-.56-1.81-1.03-2.85-1.42-1.04-.39-2.08-.7-3.12-.91-1.05-.21-2.04-.37-2.98-.47-.94-.1-1.66-.15-2.17-.13-1.21.03-2.42.1-3.63.19-1.21.1-2.45.21-3.71.33-2.1.37-3.93.82-5.48,1.36-1.74.77-2.98,1.58-3.73,2.45-.75.87-1.18,1.72-1.3,2.55-.03.35.02.74.16,1.17.14.44.39.91.77,1.43.38.52,1.07,1.04,2.08,1.56.66.2,1.15.32,1.46.35.31.04.59.02.82-.04.24-.06.39-.24.47-.52.1-.28.1-.64,0-1.08-.11-.44-.14-.81-.09-1.09.26-.84.96-1.54,2.1-2.12,1.13-.52,2.38-.91,3.73-1.18-.21.76-.41,1.58-.63,2.47-.21.89-.42,1.74-.62,2.54-.2.8-.38,1.58-.54,2.33-.16.75-.3,1.4-.41,1.94-.66.16-1.24.35-1.73.57-.45.16-.87.38-1.25.66-.38.28-.58.56-.59.85-.02.29,0,.63.07,1,.06.38.16.72.29,1.04.13.32.32.61.57.88.25.27.51.43.78.47.27.01.49.02.64.01.06-.02.11.24.13.79.02.55.04,1.22.06,2.03.01.81.06,1.73.13,2.77.07,1.04.22,2.04.43,2.99.21.96.48,1.82.81,2.59.32.77.79,1.34,1.39,1.72-1.01.06-1.65.09-1.92.11-.27.02-.5.09-.69.2-.19.12-.31.33-.36.65-.07.43.05.83.34,1.19.29.37.65.7,1.08,1.02.43.31.87.55,1.31.72.45.17.81.27,1.09.31.25.04.85.01,1.81-.07.96-.09,2.15-.23,3.58-.43Zm-1.47-25.02c.29-1.11.52-2.02.68-2.71.16-.69.28-1.33.36-1.9.08-.57.11-1.06.07-1.46-.03-.4-.16-.63-.39-.69.57-.04,1.29-.07,2.15-.11.87-.04,2.06.03,3.58.2,2.13.25,3.28.91,3.44,1.98-.08.63-.38,1.21-.91,1.74-.53.53-1.17,1.05-1.92,1.55-.75.5-1.57.96-2.45,1.38-.88.42-1.7.78-2.45,1.07-.75.29-1.63.6-2.64.92.03-.2.19-.86.49-1.97Zm-2,8.33c1.83-.2,3.57-.3,5.22-.28,1.64.02,3.1.09,4.36.22,1.26.13,2.74.34,4.44.63.03,0,.34.08.93.22.59.14,1.37.35,2.32.62.96.27,1.7.52,2.22.77.52.25.95.52,1.3.84.35.31.52.64.51.99,0,.52-.44,1.1-1.33,1.74-.89.63-2.04,1.3-3.44,1.98-1.4.69-2.92,1.33-4.57,1.94-1.65.6-3.26,1.12-4.82,1.57-1.57.44-2.95.8-4.14,1.07-1.19.28-2.04.38-2.53.31-.56-2.01-.84-4.1-.83-6.28,0-2.18.12-4.29.36-6.33Z"></path><path class="cls-1" d="m326.78,162.03c1.59-.96,3.13-2.17,4.61-3.62.59-.58,1.14-1.21,1.67-1.86.18.72.4,1.42.7,2.07.44.96,1.02,1.75,1.73,2.39.71.64,1.62.98,2.73,1.03.52-.06,1.12-.56,1.79-1.49.03.35.3.87.8,1.56.69.92,1.59,1.74,2.7,2.46,1.11.72,2.57,1.06,4.37,1.02.87-.02,1.86-.25,2.96-.69,1.11-.44,2.34-1.26,3.69-2.46.35-.3.9-.97,1.65-2.01.31.57.66,1.1,1.07,1.6.61.58,1.39,1.12,2.34,1.6.95.48,2.13.73,3.53.75,1.18,0,2.51-.38,3.97-1.13,1.46-.75,2.84-1.71,4.12-2.86,1.28-1.16,2.38-2.44,3.3-3.84.39-.6.69-1.18.94-1.76.11.47.23.95.37,1.44.29,1.05.65,2.03,1.08,2.95.42.91.92,1.68,1.48,2.3.56.62,1.22.98,1.97,1.06.31.03.66.03,1.03-.02.37-.05.72-.11,1.04-.2.32-.09.57-.21.76-.37.19-.16.26-.34.21-.54-.23-1.23-.46-2.47-.7-3.71-.23-1.24-.36-2.52-.38-3.83-.02-1.31.09-2.64.34-4,.25-1.36.67-2.76,1.26-4.21.31-.58.65-1.15,1.02-1.71.37-.56.75-.83,1.15-.81.51.01.89.14,1.12.39.24.25.45.65.64,1.2.19.55.38,1.13.56,1.73.18.61.41,1.16.69,1.66.28.5.73.89,1.36,1.19.63.3,1.32.43,2.08.37.3-.03.55-.2.75-.52.2-.31.31-.71.35-1.2.04-.48-.01-1.01-.15-1.58-.14-.57-.36-1.13-.66-1.68-.26-.44-.54-.77-.83-.98-.3-.22-.64-.38-1.02-.48-.39-.1-.84-.22-1.37-.34-.53-.12-1.19-.32-2-.59-.84-.27-1.59-.42-2.25-.46-.67-.04-1.33.02-2.01.16-.65.15-1.22.4-1.73.76-.51.36-.96.76-1.34,1.18-.39.42-.73.85-1.02,1.28-.3.43-.54.76-.74.97-.49-.4-1.05-.61-1.68-.63-.64-.02-1.08.03-1.35.17-.32.14-.55.37-.67.68-.13.31-.21.66-.24,1.04-.03.38-.04.76,0,1.13.03.38.05.66.06.87.01.16.06.57.13,1.2-.16.09-.4.29-.73.63-.4.41-.93.94-1.6,1.59-.67.66-1.43,1.34-2.27,2.04-.84.71-1.72,1.38-2.64,2.01-.91.63-1.82,1.16-2.7,1.57-.89.41-1.72.62-2.49.63-.56-.12-.97-.26-1.24-.42-.27-.16-.5-.37-.7-.62-.2-.25-.3-.52-.31-.81,1.61-1,3.04-2.1,4.29-3.3.55-.52,1.08-1.08,1.58-1.67.5-.59.95-1.22,1.35-1.88.4-.66.72-1.36.97-2.08.24-.72.37-1.47.38-2.22-.01-1.16-.34-2-.97-2.53-.63-.53-1.6-.78-2.92-.76-1.4.02-2.72.4-3.96,1.14-1.24.74-2.3,1.7-3.2,2.88-.9,1.18-1.59,2.49-2.08,3.93-.49,1.44-.71,2.91-.66,4.41.01.25.04.5.06.75-.06.07-.11.14-.16.21-1.32,1.53-2.43,2.59-3.32,3.2-.89.61-1.68,1.08-2.39,1.43-.7.35-1.33.53-1.88.54-.83.02-1.47-.28-1.91-.89-.44-.61-.7-1.46-.78-2.53-.08-1.27.21-2.7.88-4.27.58-1.28,1.23-2.48,1.95-3.58.71-1.1,1.35-2.09,1.92-2.96.56-.87.83-1.56.82-2.09,0-.2-.09-.4-.26-.6-.17-.2-.38-.37-.64-.53-.26-.15-.52-.27-.79-.35-.27-.08-.51-.1-.72-.07-.86.14-1.62.49-2.26,1.07-.65.58-1.23,1.25-1.76,2.01-.53.76-1.03,1.59-1.5,2.5-.47.9-.91,1.78-1.31,2.62-.4.84-.87,1.69-1.41,2.53-.54.85-.97,1.31-1.27,1.4-.12.03-.24-.14-.35-.52-.11-.38-.22-.89-.33-1.54-.11-.65-.19-1.41-.24-2.28-.05-.87-.05-1.79.01-2.78.11-1.62.21-2.85.3-3.67.09-.83.17-1.69.25-2.61.08-.91.18-1.8.27-2.67.1-.87.19-1.66.27-2.37.08-.71.17-1.28.25-1.72.06-.26.07-.56.04-.89-.03-.33-.12-.64-.27-.93-.15-.29-.39-.53-.73-.73-.34-.2-.77-.3-1.3-.3-.41.03-.86.13-1.34.28-.48.16-.83.29-1.05.39-.22.1-.35.19-.37.28-.15.23-.28,1-.4,2.3-.12,1.3-.22,2.58-.3,3.82-.08,1.24-.14,2.32-.19,3.21-.05.9-.12,2.63-.22,5.21,0,1.8.02,3.19.07,4.19,0,.09.02.19.02.29-.03.03-.06.05-.09.08-.56.49-1.24,1.06-2.04,1.7-.8.64-1.7,1.32-2.7,2.01-1,.7-2.07,1.32-3.2,1.88-1.13.56-2.25.94-3.34,1.14-1.1.21-2.26.27-3.49.21-.92-.06-1.69-.46-2.29-1.21-.6-.75-.88-1.83-.83-3.25.03-.9.2-1.84.51-2.83.31-.99.71-1.85,1.2-2.59.49-.74,1.16-1.42,2.01-2.04.85-.63,1.81-1.01,2.9-1.16.24.04.32.24.26.61-.03.17-.1.37-.2.6-.16.34-.31.7-.46,1.07-.15.37-.22.67-.23.91,0,.17.06.39.19.63.13.25.36.36.69.34.55-.02,1.08-.11,1.6-.29.52-.18.99-.43,1.42-.75.43-.32.78-.74,1.06-1.24.28-.5.44-1.09.48-1.75.05-.98-.19-1.75-.7-2.29-.51-.54-1.34-.84-2.47-.9-.92-.05-1.89.09-2.9.43-1.01.33-2.01.8-3.01,1.39-.99.59-1.94,1.29-2.84,2.09-.9.81-1.7,1.66-2.42,2.58-.57.72-1.03,1.47-1.43,2.24-.14.16-.32.4-.55.76-.38.58-.85,1.24-1.42,1.98-.57.74-1.19,1.45-1.87,2.12-.68.68-1.39,1.08-2.14,1.21-.25-.01-.44-.13-.58-.36-.14-.23-.24-.6-.28-1.13-.05-.52-.08-1.22-.09-2.09.02-.26.02-.7.03-1.32,0-.62-.1-1.21-.31-1.76-.21-.55-.54-1.02-.99-1.43-.45-.4-1.08-.62-1.89-.64-.33,0-.75.19-1.24.55-.5.36-1.01.8-1.55,1.33-.54.53-1.11,1.12-1.73,1.77-.61.65-1.23,1.26-1.86,1.82-.62.56-1.37,1.18-2.24,1.85-.87.67-1.57,1.02-2.09,1.03-.43,0-.65-.23-.64-.66.07-.87.53-1.97,1.36-3.33.83-1.36,1.7-2.54,2.6-3.56.9-1.02,1.75-1.85,2.55-2.49.8-.64,1.57-.98,2.29-1.01.39,0,.61.07.64.22.04.15.02.32-.06.52-.07.2-.12.4-.13.6.01.23.14.4.37.5.26.13.53.2.8.21.27,0,.5,0,.68-.02.43-.06.85-.19,1.27-.38.42-.19.78-.45,1.07-.78.29-.33.51-.71.66-1.14.15-.43.2-.89.17-1.38-.06-.47-.26-.9-.58-1.3-.32-.4-.71-.72-1.18-.99-.46-.26-.95-.45-1.45-.57-.5-.12-.96-.16-1.38-.13-.84.09-1.78.38-2.82.87-1.04.49-2.08,1.13-3.12,1.92-1.04.79-2.04,1.67-3,2.63-.96.97-1.81,1.98-2.54,3.05-.73,1.07-1.31,2.15-1.73,3.25-.42,1.1-.6,2.11-.53,3.05.05.79.26,1.52.61,2.19.36.67.81,1.25,1.36,1.73.55.48,1.21.85,1.98,1.1.77.25,1.63.36,2.56.32.78-.06,1.57-.29,2.36-.69.79-.41,1.5-.84,2.14-1.3.64-.46,1.38-1.06,2.23-1.78.49,1.02,1.23,2,2.22,2.93.99.93,1.78,1.53,2.36,1.79.57.26,1.14.46,1.69.57.55.12,1.05.16,1.49.12,1.18-.08,2.2-.53,3.04-1.33.61-.58,1.12-1.26,1.58-1.98.33.54.71,1.03,1.15,1.47.79.8,1.76,1.43,2.88,1.87,1.13.45,2.33.69,3.6.73,1.21.04,2.58-.17,4.11-.63,1.53-.46,3.09-1.17,4.68-2.13Zm34.06-12.01c.48-.96,1.04-1.87,1.68-2.71.63-.84,1.3-1.55,1.99-2.11.69-.56,1.29-.86,1.8-.88.24-.01.33.31.28.98-.09.53-.41,1.17-.97,1.93-.56.76-1.19,1.51-1.89,2.26-.7.75-1.41,1.43-2.12,2.04-.71.61-1.22,1-1.52,1.16.02-.81.28-1.7.76-2.67Z"></path><path class="cls-1" d="m405.37,160.62c1.18-.09,2.48-.57,3.88-1.43,1.4-.86,2.71-1.92,3.9-3.17,1.2-1.25,2.2-2.61,3-4.08.16-.29.29-.57.42-.85.48,1.95,1.27,3.54,2.41,4.73.41.41.88.74,1.43,1.01.54.27,1.09.47,1.65.6.56.13,1.1.2,1.62.2.52,0,.98-.06,1.37-.18,1-.28,1.81-.84,2.44-1.68.63-.84,1.11-1.77,1.44-2.78s.53-2.03.6-3.06c.07-1.03.06-1.88-.03-2.57-.02-.09-.09-.22-.21-.4-.13-.18-.29-.35-.48-.49-.2-.14-.43-.23-.7-.28-.27-.04-.56.02-.87.19-.06.04-.2.35-.45.93-.24.58-.55,1.24-.93,1.96-.38.72-.82,1.42-1.34,2.09-.52.67-1.08,1.14-1.69,1.42-.24.04-.46-.08-.64-.36-.18-.28-.35-.65-.51-1.13-.15-.47-.27-1.04-.34-1.71-.07-.66-.11-1.56-.1-2.69,0-1.13.06-2.52.16-4.18.06-.39-.03-.77-.27-1.14-.24-.37-.57-.69-.98-.94-.41-.26-.86-.44-1.37-.55-.5-.11-.98-.12-1.42-.02-.35.08-.63.4-.83.96-.21.56-.35,1.31-.44,2.24-.08.86-.12,1.81-.12,2.83-.15.09-.38.31-.7.69-.37.43-.86,1-1.48,1.71-.62.7-1.33,1.44-2.12,2.21-.79.77-1.62,1.5-2.48,2.21-.87.7-1.73,1.29-2.58,1.77-.85.48-1.67.75-2.43.82-.57-.07-.99-.18-1.27-.32-.28-.14-.53-.33-.74-.57-.21-.24-.34-.5-.37-.79,1.53-1.12,2.88-2.33,4.03-3.62.51-.56.99-1.16,1.45-1.79.45-.63.85-1.29,1.2-1.98.35-.69.62-1.41.81-2.15.19-.74.26-1.49.21-2.24-.1-1.16-.49-1.97-1.16-2.45-.67-.48-1.66-.66-2.97-.54-1.4.13-2.69.61-3.87,1.44-1.18.83-2.17,1.87-2.98,3.12-.81,1.25-1.4,2.61-1.78,4.08-.38,1.47-.49,2.95-.32,4.45.33,2.67,1.3,4.87,2.93,6.57.65.54,1.48,1.01,2.46,1.41.99.41,2.18.57,3.58.48Zm-3.37-14.13c.41-1,.9-1.94,1.47-2.83.57-.89,1.18-1.64,1.83-2.25.65-.61,1.22-.95,1.73-1.02.24-.03.36.29.36.96-.05.53-.32,1.2-.83,1.99-.5.8-1.08,1.6-1.72,2.39-.65.8-1.3,1.53-1.97,2.2-.67.67-1.14,1.09-1.43,1.27-.04-.81.15-1.72.56-2.72Z"></path><path class="cls-1" d="m418.94,134.6c.34.15.67.27.99.37.32.1.63.16.94.2.31.04.53.02.67-.07.24-.04.5-.33.78-.88.29-.55.54-1.15.77-1.8.22-.65.38-1.27.48-1.86.1-.59.09-.95-.02-1.07-.25-.22-.57-.4-.97-.54-.4-.14-.77-.18-1.12-.12-.26.04-.65.28-1.16.7-.52.42-.98.91-1.4,1.46-.42.55-.74,1.11-.95,1.69s-.12,1.05.27,1.43c.15.18.39.35.74.5Z"></path><path class="cls-1" d="m303.17,139.7c.11.21.31.42.61.64.3.22.59.41.88.57.29.16.58.29.87.4.29.1.51.13.67.08.24.01.55-.22.95-.69.4-.47.77-1,1.13-1.6.35-.59.64-1.16.86-1.72.22-.55.29-.91.21-1.06-.19-.27-.47-.52-.83-.74-.36-.22-.71-.34-1.07-.36-.26-.01-.69.13-1.28.43-.59.3-1.15.68-1.68,1.12-.53.45-.96.93-1.28,1.45-.33.52-.34,1-.04,1.45Z"></path><path class="cls-1" d="m297.61,137.99c.3.22.59.42.87.58.29.16.57.3.86.41.29.11.51.14.66.09.24.02.56-.21.96-.68.4-.47.78-.99,1.14-1.58.36-.59.65-1.16.88-1.71.22-.55.3-.9.22-1.05-.19-.27-.46-.52-.82-.75-.35-.22-.71-.35-1.06-.37-.26-.02-.69.12-1.28.42-.59.29-1.16.66-1.69,1.11-.53.44-.96.92-1.3,1.43-.33.51-.35,1-.06,1.45.1.21.3.43.6.65Z"></path></g><g><path class="cls-5" d="m597.21,234.45c-1.01-1.5-3.6-2.62-5.39-2.35,1.57,1.26,3.25,1.16,4.78,2.86.2-.17.41-.34.61-.51Z"></path><path class="cls-5" d="m597.62,238.22c-2.21-1.71-4.42-3.49-6.87-2.49,2.55.38,4.7,2.86,6.87,2.49Z"></path><path class="cls-5" d="m586.27,229.54c.56-.15,1.51-.14,1.58-.98-.17-.2-.34-.4-.5-.61-3.43-.62-9.32-2.22-12.63-.77,3.76.41,7.56.33,11.28,1.2.79.45-.52.7.27,1.14Z"></path><path class="cls-5" d="m585.29,225.9c-1.27-1.95-9.5-2.59-11.58-1.98-.41.31-.29-1.22-1.11-.1,3.21,1.1,8.22-.05,11.92,2.38.25-.03.5-.06.77-.3Z"></path><path class="cls-5" d="m583.51,233.21c1.71-.09,4.32.05,5.55-1.55-4.19-1.8-8.55-1.77-12.93-1.54,2.94,1.27,7.67.4,11.25,1.58-.6,1.05-2.68.74-3.87,1.51Z"></path><path class="cls-5" d="m595.87,241.05c-1.25-1.59-4.07-2.93-6.16-2.05,2.37.04,4.15,2.53,6.16,2.05Z"></path><path class="cls-5" d="m588.53,241.69c2.15,1.68,5.36,1.92,6.37,3.94.27-.22.54-.45.81-.67-2.31-1.98-4.65-3.64-7.17-3.26Z"></path><path class="cls-5" d="m584.39,237.95c.57-.75,1.03-.35,1.58-.98-1.76-2.27-6.96-2.84-8.55-2.45,2.18,1.35,4.51,1.11,6.73,1.92.73.56-.61.94.24,1.51Z"></path><path class="cls-5" d="m592,248.72c.84.57,2,.79,2.46-.34-2.45-1.11-4.83-3-7.41-2.72,1.4,1.25,4.82,1.4,4.95,3.06Z"></path><path class="cls-5" d="m590.45,251.39c-.74-1.27-2.93-3.03-4.45-2.46.72.67,1.33,1.38,2.46,1.72-.92.55-1.74-.02-2.69.88-.15.61.45,1.29.57,1.92-1.91.8-2.1,3.1-2.29,4.65,1.61-.55,1.43-2.01,1.78-3.2.59-.32,1.15-.31,1.72-.41.78-.74-.67-1.68-.71-2.49,1.27-.93,2.36.1,3.6-.61Z"></path><path class="cls-5" d="m581.37,265.13c1.08-3.53-4.76-5.51-6.8-7.34.69,3.01,6.11,3.49,6.8,7.34Z"></path><path class="cls-5" d="m578.17,267.45c-.16-3.15-4.86-5.78-7.01-7.17,1.08,2.65,5.71,4.23,7.01,7.17Z"></path><path class="cls-5" d="m576.56,270.85c.38-.28.22-.6.64-.88-2.45-2.75-6.36-4.69-9.46-6.83,1.28,3.61,6.95,3.69,8.82,7.7Z"></path><path class="cls-5" d="m536.01,246.47c4.93-.79,9.97-2.9,14.81-2.77.28.73-.78.16-.64.88.78.36,1.77-.31,2.15-1.11-.11-.14-.23-.27-.34-.4-5.21-.16-10.51.61-15.99,3.41Z"></path><path class="cls-5" d="m545.44,247.51c-2.59.65-5.63.94-7.54,2.86,4.62-.88,9.37-3.14,13.94-3.41.29.52-.93.91-1.24,1.38.96.34,2.06-.71,3.13-1.58-.11-.13-.22-.27-.34-.4-2.5-.8-5.33.49-7.95,1.15Z"></path><path class="cls-5" d="m547.16,253.26c3.03-.48,5.78-1.23,8.79-2.19-5.18.2-10.46,1.44-15.69,2.13,1.64.82,4.52.45,6.9.06Z"></path><path class="cls-5" d="m545.4,241.71c.56-.51,1.41-.99,1.45-1.55-.17-.2-.34-.4-.51-.61-4.12.78-9.27,2.15-12.89,4.25,3.69-.24,7.57-2.54,11.31-3.27.89.06.01.63.64,1.18Z"></path><path class="cls-5" d="m563.73,266.15c2.04,1.95,8,3.2,8.66,7.5.83-.42.66-.93.87-1.41-3.06-3.39-6.15-6.29-9.53-6.09Z"></path><path class="cls-5" d="m540.95,239.26c.87.6,2.09-1.07,1.65-1.72-3.02-.38-6.17.8-9.39,2.7,2.66.17,5.54-2.03,8.21-2.06.28.4-.58.69-.47,1.08Z"></path><path class="cls-5" d="m532.17,237.34c2.61.06,5.32-.99,7.95-1.15-.11-.14-.23-.27-.34-.41-2.45-.38-5.01.33-7.61,1.55Z"></path><path class="cls-5" d="m559.76,268.77c2.99,2.1,6.71,4.69,9.03,7.54.37-.21.19-.48.44-.71-.1-.2.04-.37-.14-.57-1.18-.82-2.79-2.76-4.48-4.14-1.36-1.11-3.33-3.14-4.85-2.12Z"></path><path class="cls-5" d="m555.18,269.85c.12.71,1.46,2.2,2.26,1.88.57,2.79,5.84,4.18,6.43,7.3.83-.42.66-.94.87-1.42-.11-.13-.22-.27-.34-.4-1.37-1.56-3.48-2.65-5.22-4.2-1.25-1.12-2.2-3.38-4.01-3.16Z"></path><path class="cls-5" d="m558.69,280.63c.29.18.6.2.94-.1-.03-.25-.06-.51-.3-.77-2.83-2.2-6.78-6.77-10.34-7.47,2.72,3.09,7,4.99,9.7,8.35Z"></path><path class="cls-5" d="m554.11,281.71c-1.42-2.11-3.74-3.82-5.86-5.38-1.09-.81-2.86-2.29-3.97-1.48,1.9,2.35,8.4,4.29,8.42,8.04.39-.61,1.62-.31,1.41-1.18Z"></path><path class="cls-5" d="m548.76,285.14c-.05,1.38,1.7.42,2.39.4.11-.24.21-.48.07-.74-2.1-3.05-6.08-4.48-9.3-6.63-1.46-.98-3.18-3.38-4.34-1.51,4.15,2.25,8.29,4.69,12.36,7.84.29.49-.91.7-1.18.64Z"></path><path class="cls-5" d="m544.15,286.59c-.24,1.14,2.68,1.63,3.9.17-2.35-2.8-5.07-3.61-7.75-5.18-1.6-.93-3.35-2.55-5.22-2.15,3.67,3.47,7.62,3.79,11.32,7-.07.64-1.65.46-2.26.17Z"></path><path class="cls-5" d="m529.53,285.09c2.36,2.12,4.93,1.89,7.17,5.32.74-1.38-1.2-3.13-2.46-3.77,2.39-.28,6.06,3.15,9.23,1.21-1.15-1.94-3.59-2.74-5.63-3.87-1.93-1.07-3.97-3.2-6.13-2.42,3.11,2.05,6.3,3.28,9.4,5.52-3.26.94-7.69-3.07-11.58-1.98Z"></path><path class="cls-5" d="m516.33,270.08c-5.24-.56-10.7,1.35-16.16,3.21,4.8-.04,9.81-2.53,14.61-2.6-2.92,2.8-7.9,2.64-10.27,6.17,3.61,1.42,7.58-1.19,11.28-.85-2.68,2.07-6.95,2.12-8.48,5.02,2.83,1.04,5.91-.66,8.82-.51.83-.2,1.53,1.04,2.42.03-2.87-1.99-6.1,0-9.12-.26,2.07-2.05,6.33-2.47,8.08-4.68-3.51-1.76-7.44,1.13-11.07.68,2.78-2.51,7.91-3.28,10.23-5.79-.11-.14-.22-.27-.34-.4Z"></path><path class="cls-5" d="m496.36,269.95c4.46-.47,9.11-3.01,13.47-2.33-.04,1.21-.93.78-1.82,1.52,1.04.95,2.89-.95,3.5-1.55-.11-.13-.22-.27-.34-.4-4.73-1.34-9.74.38-14.81,2.77Z"></path><path class="cls-5" d="m506.86,263.25c-3.8.71-8.58,1.39-11.85,3.04,3.59.26,7.39-1.89,11.01-1.99.1.69-1.34,1.25-1.85,1.89,1,.73,3.38-1.5,3.4-2.49-.21-.37-.48-.19-.71-.44Z"></path><path class="cls-5" d="m533.95,298.18c-1.33-1.33-4.12-3.76-6.06-5.22.54,2.25,4.07,5.51,6.06,5.22Z"></path><path class="cls-5" d="m492.59,264.2c3.12-.95,7.2-3.21,9.49-1.76.2-.17.4-.34.61-.5-.03-.25-.06-.5-.3-.77-3.04-.2-7.13.5-9.8,3.03Z"></path><path class="cls-5" d="m522.74,294.18c2.19,1.93,4.29,4.9,6.64,5.08-1.51-1.41-4.34-5.53-6.64-5.08Z"></path><path class="cls-5" d="m518.23,294.52c1.75,4.13,5.86,7.61,9.7,8.34-1.67-1.76-4.74-3.12-6.8-5.28-1.14-1.2-1.46-2.81-2.9-3.06Z"></path><path class="cls-5" d="m523.38,303.57c-3.17-2.14-6.27-5.01-9.4-7.57-.55.94,1.15,2.4,1.95,3.16,1.93,1.82,4.82,3.67,6.5,4.51.27.51.61.14.94-.1Z"></path><path class="cls-5" d="m517.72,304.18c-3.56-1.9-6.95-5.71-10.47-8.04,1.34,3.18,7.57,7.44,10.24,8.58.26-.16.32-.34.23-.54Z"></path><path class="cls-5" d="m510.99,304.32c-3.31-1.27-6.27-6.37-9.67-6.66,2.5,2.71,6.56,5.87,9.77,7.6.17-.3.2-.6-.1-.94Z"></path><path class="cls-5" d="m507.15,305.47c-.02-.28-.06-.56-.34-.4-2.09-1.76-5.04-3.52-7.34-5.52-1.1-.95-1.98-3-3.71-2.39,3.69,3.71,7.84,7.03,11.15,8.85.26-.16.32-.34.24-.54Z"></path><path class="cls-5" d="m496.58,302.64c1.91,1.35,3.74,3,5.49,3.3-2.21-2.42-5.82-5.34-8.76-6.39.19,1.12,1.87,2.11,3.27,3.1Z"></path><path class="cls-5" d="m490.83,312.58c.09-1.7-2.53-6.32-4.65-6.39,2.2,1.91,2.76,6.34,4.65,6.39Z"></path><path class="cls-5" d="m486.62,313.69c.75-2.72-3.05-7.67-5.12-9.42-.44,1.34.95,2.07,1.58,3.13,1.42,2.37,2.12,5.33,3.54,6.29Z"></path><path class="cls-5" d="m483.36,314.7c.72-2.98-2.52-7.32-4.52-9.93-.58,1.9,1.76,4.27,2.8,6.23.61,1.15.18,3.51,1.72,3.7Z"></path><path class="cls-5" d="m479.82,316.63c.75-1.72-.84-4.04-1.89-5.96-1.4-2.56-3.75-5.44-3.98-7.64-.24-.07-.48-.15-.71-.44-.74,2.29,1.47,4.75,2.73,6.97,1.35,2.38,2.47,4.99,3.84,7.07Z"></path><path class="cls-5" d="m473.05,308.92c-1.03-2.09-2.37-4.5-2.8-6.23-.29-.21-.62-.02-.91-.27.74,3.74,3.04,8.61,5.83,11.91.48-1.66-1.31-3.76-2.12-5.42Z"></path><path class="cls-5" d="m464.8,301.08c.57,2.98,2.88,6.11,3.84,9.12.21,1.02.42,3.48,2.16,3-1.42-3.77-3.06-9.44-6-12.12Z"></path><path class="cls-5" d="m604.08,234.88c-3.26-12.21-16.11-19.46-26.24-23.65-7-2.89-16.98-3.67-24.95-2.81-5.61.6-9.99.89-15.52,4.39-.8.44.33-1.41-.47-.98-1.01.7-2,1.74-2.52,3.13-5.94,5.15-11.25,3.31-16.73,3.34-.31.69-.28.95.44,1.35-.69.11-1.34-.29-2.02-.37-.3,1.64-1.59,1.23-2.79,1.99.8.81,1.64,1.12,2.53.97-.8.53-3.09-.25-4.51.34.06-.49-.53-1.04-.98-1.58-4.61-.07-10.51,3.55-14.94,8.36-.33.19-.57-.55-.91-.27-1.25,2.63-2.84,5.22-3.7,7.88-3.56,3.87-9.88,5.53-14.07,4.89-1.14-.18-2.26-1.71-3.33-.3.29,2.2,3.41.39,3.74,2.02,6.11-.09,11.87,3.66,17.85,4.97,3,2.48,6.73,3.56,10.1,5.95,1.85,1.31,3.2,3.25,4.99,4.74,3.56,2.98,7.79,5.78,11.89,6.86.45.53.89,1.22,1.38,1.24-.6-3.41-5.86-4.17-8.29-7.47,1.56-.74,2.92.77,4.38,1.14.24-2.94-4.14-2.09-5.89-2.96.17-1.05,1.79-.6,2.59-1.82-1.68-2.47-5.25-.77-7.64-2.19.49-1.2,3.8-.96,3.77-2.46-2.49-1.36-5.25.27-7.78-.7.54-.78,3.49-.62,4.14-2.43-3.72-.81-7.73,1.49-11.28-1.2.74-.57,3.02-.36,4.34-.54.23.52-1,.35-1.38.81,1.38.62,2.89-.28,4.41-1.28-4.16-1.49-8.72,1.46-12.76-1.34,1.61-1.19,5.52.64,7.2-1.22-3.43-1.33-7.21,1.27-10.64-.03,3.42-2.93,7.33-.05,10.57-3.34.86.07,1.68.7,2.53.98-.45,1.21-1.17.14-1.62,1.35,2-.12,4.15-1.88,6.23-2.8.71-.37.17.59.67.81.24-1.13,1.61-1,2.42-2.02.34.4.67.81,1.01,1.21-.96.94-3.49,1.41-5.08,2.53-.04-.31.29-.6-.1-.94-.38.53-1.68.97-1.45,1.55,1.44,1.47,4.89-1.9,7.1-2.16-.19,1.45-1.2,1.06-1.88,2.26,1.02-.26,2.08-1.02,3.16-1.95.34.4.67.81,1.01,1.21-1.89.92-3.74,1.47-5.62,2.29,2.09.94,4.49-1.49,6.67-1.45-.33,1.33-3.7,2.77-4.14,4.48,2.35.13,4.83-1.09,7.27-1.96-.46,1.09-1.33,1.53-2.25,2.23,1.15,1.08,2.71-2.4,3.77-.41-1.03,1.44-4.42,1.03-5.45,2.49,1.86.06,3.78-.55,5.72-1.35-.05.81-1.47,1.49-1.51,2.29.4,1.8,2.49.97,3.64,1.08-.66,2.24,1.52,5.03,3.77,5.75,1.28-2.02-4.41-2.98-1.92-5.59,2.42.93,3.37,4.22,4.48,6.19.7-1.12-.04-2.37-.98-3.64,1.89,1.32,2.16,3.14,3.67,4.81-.77-.4-1.6-.25-2.32-1.14,1.57,1.57,3.54,4.93,3.54,6.3.3.78.75-.02,1.14-.27.83,2.84-2.02,5.29-4.71,4.61-.02.58,2.9,1.27,3.84.91,1.68-.64,2.84-3.48,2.73-5.35-.51-8.1-8.91-19.09-17.79-26.25-4.7-3.79-11.65-5.91-15.83-8.71-1.29.05-1.65,1.67-2.66.51,3.68-4.94,8.46-4.09,12.59-7.08,14-.04,27.31,7.72,40.74,13.95,3.27,3.42,9.18,5.43,12.33,10.26,3.36-.56,8.35,5.5,10.87-.51,1.53-3.63.28-8.97-1.86-12.49-7.75-12.76-21.89-16.78-30.18-21.4,4.34-1.25,8.55-.99,12.89-2.2,8.27.8,16.49,2.14,24.41,6.69,4.8.5,11.15,4.94,14.69,11.04,8.37,5.72,2.84,14.74,4.02,21.65-.43.64-.76.15-1.18.64,2.71,1.38,5.24-2.58,5.28-4.75.26-.17.48.22.71.44.87-2.47.31-5.07.87-7.57-1.17-.72-.97-2.79-.21-3.94Zm-90.05,21.36c-.67.5-1.27.28-1.95.94-.44-.79-1.89-.92-1.72-1.65,1.2.51,2.5-.11,3.67.71Zm-8.55-4.51c1.24.73,2.6.16,3.87.54-.91.43-1.82.87-2.69.88-.26-.85-1.53-.62-1.18-1.41Zm-3.34-2.35c1.08.47,2.26-.26,3.37-.07-.77,1.04-2.02.65-2.19,1.48-.26-.85-1.53-.62-1.18-1.41Zm-16.6-6.36c.55-.55,1-.06,1.55-.61.17.2.34.4.51.61-.73.49-1.38.13-2.05,0Zm39.5,9.17c-.84-1.01-1.68-2.02-2.53-3.03,1.37.02,2.33,2.15,2.53,3.03Zm-3.81-1.28c-.86-.15-1.8.63-2.59-.23.54-.45,1.08-.9,1.61-1.35.23.52,1.36,1.12.98,1.58Zm-5.05-8.11c.63-.17,1.14,1.21,1.72,1.65-.55.77-2.5-1.01-1.72-1.65Zm.17,2.26c-1.74.68-3.5,1.59-5.18,1.59,1.23-.55,2.52-1.77,3.8-2.83.43.72.96.41,1.38,1.24Zm-3.1-4.95c.49.21,1.88,1.11,1.72,1.65-.49.07-2.52-.8-1.72-1.65Zm-1.21-1.04c-.57.7-1.92-.63-1.75-1.28.57.61,1.2.5,1.75,1.28Zm-16.54-9.15c.54.3,1.15.94,1.18,1.41-.51-.56-1.15.37-1.65-.34-.25-.4-.04-.75.47-1.08Zm-1.14,2.32c.26.85.54.53,1.18,1.41-.7.9-1.29.52-1.89.2.28-.54.08-1.11.71-1.62Zm-4.54,8.93c.43-1.08,2.24-2.04,3.26-3.07.47.32.98.16,1.41.87-1.59,1.12-3.28,3.25-4.68,2.19Zm8.32-1.11c-1.59,1.04-3.11,1.34-4.58,1.08,1.02-.72,1.63-1.47,2.26-2.22.74.79,1.57.49,2.32,1.14Zm26.82-15.87c.55.07,1.08.43,1.62.71-.49.44-1.83-.19-1.62-.71Zm3.27-1.01c-.57-.73-2.17-.63-2.12-1.31.36.16.74.01,1.14-.27.23.52,1.36,1.12.98,1.58Zm1.92-.57c.75.7,2.49,1.29,2.59,2.29-1.17-.28-2.12-1.11-2.59-2.29Zm6.57,3.77c-1.16-.47-2.93-3.04-2.29-3.57-1.12.63-.74-2.47-2.12-1.31-.49.64.99,1.46.37,2.09-.69-1.34-2.52-.92-2.59-2.29,3.77.94,8.18-5.17,11.85-3.04-2.13.84-4.33,2.48-6.43,2.97-1.17,1.39,1.4,3.25,1.11,4.21-.35-.2-.63-1.24-1.04-.84.28.58,1.47,1.25,1.15,1.78Zm16.06-4.15c-2.47,1.19-5.83,1.22-7.78,3.4,3.34.21,8.14-4.68,10.57-1.28-2.72,1.2-6.38,1.74-8.55,3.71,3.22-.55,6.54-2.12,9.83-3.41.67.92,2.37,1.18,2.39,2.45-2.93,1.16-7.68,1.35-9.49,3.81,4.2-.07,9.78-5.22,13.84-2.3-3.14,2.2-7.98,1.9-9.9,4.15,2.74-.04,5.6-1.41,8.45-2.6.21,1.38,1.37.23,2.29-.54.43.75.92.83,1.38,1.25-3.15,1.75-7.13,1.85-9.69,3.98,2.99.04,7.02-2.97,9.33-1.96.5-.66.88-.15,1.38-.81.39.47.79.94,1.18,1.41-2.56,1.17-6.9,1.1-8.35,3.54,2.75-.82,5.56-2.34,8.25-2.43-.64.79-2.14.38-2.19,1.48,1.29.2,2.77-1.79,4-.95-2.52,1.95-7.4.91-8.18,3.74,2.36-.62,4.78-1.89,7.1-2.16-.34.65-1.47.19-1.21,1.01.99.14,2.08-1.39,3.43-.81-2.13,1.57-5.79,2.08-8.55,3.71,2.27.43,4.75-1.57,7.07-1.79-1.67,1.78-4.73,1.77-4.85,4.04,2.73.03,5.56-.95,8.31-1.12-1.43-2.27-4.9.65-7.1.1,2.61-1.47,4.68-2.86,6.66-3.5,1.97,1.79,1.83,6.55-1.17,6.8.47,1.03,1.08.43,1.58,1.07-2.41,3.8-7.13-.35-10.24-2.42-.3-.4.55-.7.1-1.11-4.08-3.09-8.15-6.22-12.26-8.95,1.19-.52.42-2.19-.54-2.29-1.38.56.2,1.39,0,2.05-1.59-.22-2.5-1.39-3.22-2.65.66.58,1.31,1.4,2.1.5-.71-.33-1.34-1.46-2.16-.59-.89-1.58-1.52-3.27-2.89-3.41.29.77,1.34,1.61.91,2.32-2.09-.5-2.93-3.1-3.1-4.95,2.96-1.09,5.92-2.12,8.92-3.67.77.43,1.57.5,2.33,1.14Zm-12.73,2.4c.33,1.15,1.37,2.36,1.18,3.47-2.79-1.1-3.75-3.04-5.25-5.89,3.19-.84,6.68-5.04,9.59-2.87-1.75,1.55-5.17,1.54-5.76,3.77,3.2-1.05,6.63-4.55,9.56-2.5-3.13,1.56-6.2,2.53-9.32,4.01Zm7.27-6.06c-.7-.49-1.47-.22-2.16-.94.68-.49,2.18.56,2.16.94Zm-3.03-1.58c-.89.92-1.59-.34-2.39-.4.86-.57,1.6.23,2.39.4Zm25.82-4.76c.88.6,1.85.21,2.73.81-.83.16-2.6-.11-2.73-.81Z"></path><path class="cls-5" d="m595.64,253.91c-.79.36-.36.84-.67,1.24-.98.1-.79-.86-1.58-1.07-3.09,8.03-9.72,15.98-17.73,22.67-12.61,10.52-26.23,13.18-38,17.66.55,1.33,2.7,1.36,4.07.37-.15,1.94-3.38,1.74-4.04,3.37.7,1.22,1.61.06,2.36.77,9.65-3.93,20.41-7.13,29.82-13.92,5.35-3.86,10.7-8.33,15.24-13.74.25-.26.6.89.57-.13.43.05.58-.35.2-.17,4.38-4.71,9.2-9.94,11.37-14.28-.97-.9-.56-1.17-1.62-2.76Z"></path><path class="cls-5" d="m462.61,306.67c-1.06-2.44-1.53-5.91-3.61-7.61-.52,1.65.89,2.95,1.79,5.02-1.35-.55-2.01-3.62-3.44-3.3,2.59,2.85,3.39,6.36,6.37,10.1,1.23-1.41-.54-2.88-1.11-4.21Z"></path><path class="cls-5" d="m458,254.35c3.17-.04,8.42-1.7,10.2-5.43,2.12-.41,3.73-2.88,5.49-2.87-.62-.74-1.23-1.48-1.85-2.22-1.02,1-1.93.67-2.79-.06-4.25,3.46-10.57,6.48-14.47,11.39,1.01,1.2,2.24,0,3.43-.81Zm12.86-7.99c-.66-.24-1.49,1.3-2.12.74.63-.67,2.23-1.46,2.12-.74Zm-4.21,3.17c-1.04,1.55-4.67,3.75-5.49,2.87,1.77-.31,3.69-2.25,5.49-2.87Z"></path><path class="cls-5" d="m539.41,299.79c-1.72-.1-2.9,1.11-4.28,1.85-13.21,7.12-27.18,10.27-39.72,7.8-.23,1.36-.32.84-1.65,1.72,2.18,1.38,4.6.03,6.8,1.17-1.14.18-2.29.5-3.4.44-.21.36-.26.73-.47,1.08-10.8,4.41-25.02,3.91-36.5,1-7.2-1.83-17.39-6.36-20.34-16.59-.93-3.21-.61-8.51-.75-12.39-.09-2.7-.14-4.39.64-7.04,1.32-.82,1.77-2.49,2.86-2.73.1.69-1.18,1.26-.37,2.02.05-.79.66-.38,1.21-1.01.79.45-.53.7.27,1.15,3.05.01,6.2-1.1,9.03,1.37,3.94-.88,8.41-.46,13.54,1.04,3.74,1.1,8.44,2.37,10.84,3.97,3.21,2.13,13.75,6.12,16.97,4.34,1.48-.82,1.86-2.63,3.6-2.66.68-1.06-.46-2.28.67-3.3-7.8-9.86-14.77-15.12-24.69-20.15-5.93-3.01-12.51-5.09-17.31-4.74-.71.28-.23-1.01-1.04-.84-.98.6.07,1.38-.74,1.99-.3,0-.81-1.3-1.62-.7-1.24,2.04-.53,4.7-2.49,6.87-1.86,2.06-5.03,2.87-7.5,4.55,1.81.66,3.88-1.58,5.79-2.09-.16.92-1.89,1.7-2.66,2.56.66.66.97.03,1.21,1.04,1.17-1.08,2.85-2.11,3.46-3.23-.32,1.21-.78,2.42-1.81,3.57,4.34.1,6.63-5.01,7.1-8.32,2.1-.49,4.09.22,6.09.74-1.96,1.61-2.66,2.66-4.65,3.88.16-1.48,2.88-2.73,2.25-4.28-.79-.23-1.79.49-2.15,1.11.27.49.58.42.88.64-1.52,1.33-2.38,1.99-3.26,3.06.21.41.47.25.74.07.56,1-1.13.63-1.08,1.58,2.24-.36,6.86-3.66,8.18-5.79.52-.19.99.09,1.45.5-1.31,2.06-5.17,3.94-6.87,5.73,2.85-.11,6.24-3,8.31-5.22.8.04,1.56.69,2.36.77-1.6,2.48-4.64,3.21-6.83,5.35,2.7-.94,5.98-2.14,8.25-4.48.79.14,1.58.47,2.36.77-2.46,1.35-5.83,3.1-7.71,4.72,1.95.94,5.26-3.76,6.53-2.02.75-.68,1.9-1.32,1.68-2.09.89-.22,1.7.52,2.53.98-2.35,1.77-5.57,2.6-7.3,4.38,2.36,0,4.91-1.96,7.41-3.44.09.82-1.81,1.46-1.14,2.32,1.84-1.44,4.15-3.43,6.13-1.69-3.59,1.84-7.15,3.35-10.77,5.56,3.2-.25,6.61-2.85,9.9-4.15.24.96-2.74,1.62-1.92,2.63.78-1.44,3.38-1.1,4.21-3.17.23.27.45.54.67.81.32.74-.69-.22-.98.47.28.38.6.22.88.64-2.65,1.07-5.27,1.86-7.98,3.57,2.29.87,4.91-1.99,7.3-2.33-.6,1.31-3.07,2.46-3.33,3.81,2.25.56,4.71-1.2,7.07-1.79-.6,1.32-3.16,2.45-2.96,3.84,1.79.86,3.72.18,5.59.13.69.87-1.02,1.52-.4,2.39,1.82,1.54,4.35.48,5.56,2.56,1.13-2.41-2.85-2.6-4.21-2.99.34-.72.55-1.44.57-2.19-1.74-1.38-3.7-.38-5.56-.5.16-1.29,3.67-2.28,2.76-3.67,3.3.93,9.43,7.82,7.28,10.37-2.74,3.24-7.97-1.56-11.11-1.01-.37-2.01-2.69-2.21-4.58-3.03-.04-.31.29-.6-.1-.94-10.81-4.36-21.78-6.87-33-6.72-.38.03-.77.19-1.18.64-.52-.36-1.14-1.27-2.12-1.31-1.01.98-1.62,2.77-3,2.16-3.11,6.42-3.66,14.73-2.01,22.22,1.47,6.66,9.34,12.92,15.09,16.86,8.03,2.72,16.12,4.81,24.28,6.11,15.19.62,31.24-8.31,46.83-12.01,5.23-2.75,14.71-4.61,18.51-10.65-.6-.98-1.36-.11-2.09.37Zm-85.71-37.06c.21-.49.28-1.95,1.28-1.75-.18.49-.84,1.9-1.28,1.75Zm8.42-.17c1.73.38,5.3,1.65,5.76,2.39-1.78-.98-4.63-1.05-5.76-2.39Zm17.45,15.58c1.78-1.55,4.17-2.91,4.85-4.04.47,1.11,2,1.16,1.85,2.22-2.15-.28-4.49,1.51-6.7,1.82Zm-15.92.61c-5.37-1.16-10.82-1.47-16.3-1.47,5.45-1.11,11.72-.24,16.3,1.47Zm-25.41,14.69c-.98-2.76-.76-6.41.2-8.38-.03,2.8-.06,5.59-.2,8.38Zm13.95,21.24c-.37-.78,3.12.74,3.27,1.04-1.1-.26-2.16-.85-3.27-1.04Z"></path><path class="cls-5" d="m458.47,309.09c1.09-3.01-2.52-6.45-2.87-9.59-.43-.84.9-1.52-.74-2.12-1.25,2.44,1.19,5.21,2.09,7.84-2.19-1.86-4.07-7.85-7.48-8.14-.7,1.3.15,2.75.74,4.17-6.02-5.27-4.67-11.5-5.19-16.9-.31-.67-.74-.07-1.08-.47-.05,3.99.76,7.74,1.18,11.68.25,2.29-.16,5.13,1.96,7.27.84-.92.67-1.93.27-2.96,1.85,1.23,1.99,3.91,3.77,5.76,1.4-2.18-.5-4.65-.68-6.97,4.04,1.2,4.4,8.29,8.02,10.43Z"></path></g></svg> 